<mxfile host="app.diagrams.net" agent="Mozilla/5.0 (Macintosh; Intel Mac OS X 10_15_7) AppleWebKit/537.36 (KHTML, like Gecko) Chrome/130.0.0.0 Safari/537.36" version="27.1.4" pages="2">
  <diagram name="pool-and-target" id="O7WVhuoteA_u6mEmchgb">
    <mxGraphModel dx="1833" dy="1042" grid="1" gridSize="10" guides="1" tooltips="1" connect="1" arrows="1" fold="1" page="1" pageScale="1" pageWidth="850" pageHeight="1100" math="0" shadow="0">
      <root>
        <mxCell id="0" />
        <mxCell id="1" parent="0" />
        <mxCell id="JYZI23fgHM0VChxFwIGK-145" value="" style="rounded=1;whiteSpace=wrap;html=1;fillColor=#E6E6E6;strokeColor=default;" parent="1" vertex="1">
          <mxGeometry x="40" y="110" width="780" height="480" as="geometry" />
        </mxCell>
        <mxCell id="JYZI23fgHM0VChxFwIGK-146" value="server-A" style="text;html=1;align=center;verticalAlign=middle;whiteSpace=wrap;rounded=0;" parent="1" vertex="1">
          <mxGeometry x="400" y="540" width="60" height="30" as="geometry" />
        </mxCell>
        <mxCell id="JYZI23fgHM0VChxFwIGK-147" value="&lt;font style=&quot;font-size: 14px;&quot;&gt;服务器硬件资源分配&lt;/font&gt;" style="text;html=1;align=left;verticalAlign=middle;whiteSpace=wrap;rounded=0;" parent="1" vertex="1">
          <mxGeometry x="40" y="50" width="330" height="30" as="geometry" />
        </mxCell>
        <mxCell id="JYZI23fgHM0VChxFwIGK-192" value="" style="group" parent="1" vertex="1" connectable="0">
          <mxGeometry x="75" y="140" width="710" height="390" as="geometry" />
        </mxCell>
        <mxCell id="JYZI23fgHM0VChxFwIGK-106" value="" style="rounded=1;whiteSpace=wrap;html=1;fillColor=#d5e8d4;strokeColor=none;" parent="JYZI23fgHM0VChxFwIGK-192" vertex="1">
          <mxGeometry width="340" height="390" as="geometry" />
        </mxCell>
        <mxCell id="JYZI23fgHM0VChxFwIGK-1" value="&lt;font style=&quot;color: rgb(255, 255, 255);&quot;&gt;Interleave-Set (of PMem on socket-0)&lt;/font&gt;" style="rounded=1;whiteSpace=wrap;html=1;fillColor=#990000;strokeColor=none;" parent="JYZI23fgHM0VChxFwIGK-192" vertex="1">
          <mxGeometry x="30" y="70" width="280" height="40" as="geometry" />
        </mxCell>
        <mxCell id="JYZI23fgHM0VChxFwIGK-3" value="nvme0" style="rounded=1;whiteSpace=wrap;html=1;fillColor=#006600;strokeColor=none;fontColor=#FFFFFF;" parent="JYZI23fgHM0VChxFwIGK-192" vertex="1">
          <mxGeometry x="30" y="150" width="120" height="40" as="geometry" />
        </mxCell>
        <mxCell id="JYZI23fgHM0VChxFwIGK-4" value="&lt;font style=&quot;color: rgb(255, 255, 255);&quot;&gt;nvme1&lt;/font&gt;" style="rounded=1;whiteSpace=wrap;html=1;fillColor=#006600;strokeColor=none;" parent="JYZI23fgHM0VChxFwIGK-192" vertex="1">
          <mxGeometry x="190" y="150" width="120" height="40" as="geometry" />
        </mxCell>
        <mxCell id="JYZI23fgHM0VChxFwIGK-21" value="&lt;font style=&quot;font-size: 10px;&quot;&gt;target&lt;/font&gt;&lt;div&gt;&lt;font style=&quot;font-size: 10px;&quot;&gt;0&lt;/font&gt;&lt;/div&gt;" style="text;html=1;align=center;verticalAlign=middle;whiteSpace=wrap;rounded=0;" parent="JYZI23fgHM0VChxFwIGK-192" vertex="1">
          <mxGeometry x="30" y="23" width="40" height="30" as="geometry" />
        </mxCell>
        <mxCell id="JYZI23fgHM0VChxFwIGK-23" value="&lt;font style=&quot;font-size: 10px;&quot;&gt;target&lt;/font&gt;&lt;div&gt;&lt;span style=&quot;font-size: 10px;&quot;&gt;1&lt;/span&gt;&lt;/div&gt;" style="text;html=1;align=center;verticalAlign=middle;whiteSpace=wrap;rounded=0;" parent="JYZI23fgHM0VChxFwIGK-192" vertex="1">
          <mxGeometry x="70" y="23" width="40" height="30" as="geometry" />
        </mxCell>
        <mxCell id="JYZI23fgHM0VChxFwIGK-24" value="&lt;font style=&quot;font-size: 10px;&quot;&gt;target&lt;/font&gt;&lt;div&gt;&lt;span style=&quot;font-size: 10px;&quot;&gt;2&lt;/span&gt;&lt;/div&gt;" style="text;html=1;align=center;verticalAlign=middle;whiteSpace=wrap;rounded=0;" parent="JYZI23fgHM0VChxFwIGK-192" vertex="1">
          <mxGeometry x="110" y="23" width="40" height="30" as="geometry" />
        </mxCell>
        <mxCell id="JYZI23fgHM0VChxFwIGK-28" value="&lt;font style=&quot;font-size: 10px;&quot;&gt;target&lt;/font&gt;&lt;div&gt;&lt;span style=&quot;font-size: 10px;&quot;&gt;3&lt;/span&gt;&lt;/div&gt;" style="text;html=1;align=center;verticalAlign=middle;whiteSpace=wrap;rounded=0;" parent="JYZI23fgHM0VChxFwIGK-192" vertex="1">
          <mxGeometry x="190" y="23" width="40" height="30" as="geometry" />
        </mxCell>
        <mxCell id="JYZI23fgHM0VChxFwIGK-29" value="&lt;font style=&quot;font-size: 10px;&quot;&gt;target&lt;/font&gt;&lt;div&gt;&lt;span style=&quot;font-size: 10px;&quot;&gt;4&lt;/span&gt;&lt;/div&gt;" style="text;html=1;align=center;verticalAlign=middle;whiteSpace=wrap;rounded=0;" parent="JYZI23fgHM0VChxFwIGK-192" vertex="1">
          <mxGeometry x="230" y="23" width="40" height="30" as="geometry" />
        </mxCell>
        <mxCell id="JYZI23fgHM0VChxFwIGK-30" value="&lt;font style=&quot;font-size: 10px;&quot;&gt;target&lt;/font&gt;&lt;div&gt;&lt;span style=&quot;font-size: 10px;&quot;&gt;5&lt;/span&gt;&lt;/div&gt;" style="text;html=1;align=center;verticalAlign=middle;whiteSpace=wrap;rounded=0;" parent="JYZI23fgHM0VChxFwIGK-192" vertex="1">
          <mxGeometry x="270" y="23" width="40" height="30" as="geometry" />
        </mxCell>
        <mxCell id="JYZI23fgHM0VChxFwIGK-62" value="engine.0" style="text;html=1;align=center;verticalAlign=middle;whiteSpace=wrap;rounded=0;" parent="JYZI23fgHM0VChxFwIGK-192" vertex="1">
          <mxGeometry x="140" y="340" width="60" height="30" as="geometry" />
        </mxCell>
        <mxCell id="JYZI23fgHM0VChxFwIGK-95" value="" style="rounded=0;whiteSpace=wrap;html=1;fillColor=#fad7ac;strokeColor=none;" parent="JYZI23fgHM0VChxFwIGK-192" vertex="1">
          <mxGeometry x="30" y="228" width="280" height="80" as="geometry" />
        </mxCell>
        <mxCell id="JYZI23fgHM0VChxFwIGK-96" value="core" style="rounded=1;whiteSpace=wrap;html=1;fillColor=#a0522d;fontColor=#ffffff;strokeColor=none;" parent="JYZI23fgHM0VChxFwIGK-192" vertex="1">
          <mxGeometry x="35" y="240" width="30" height="40" as="geometry" />
        </mxCell>
        <mxCell id="JYZI23fgHM0VChxFwIGK-97" value="core" style="rounded=1;whiteSpace=wrap;html=1;fillColor=#a0522d;fontColor=#ffffff;strokeColor=none;" parent="JYZI23fgHM0VChxFwIGK-192" vertex="1">
          <mxGeometry x="75" y="240" width="30" height="40" as="geometry" />
        </mxCell>
        <mxCell id="JYZI23fgHM0VChxFwIGK-98" value="core" style="rounded=1;whiteSpace=wrap;html=1;fillColor=#a0522d;fontColor=#ffffff;strokeColor=none;" parent="JYZI23fgHM0VChxFwIGK-192" vertex="1">
          <mxGeometry x="115" y="240" width="30" height="40" as="geometry" />
        </mxCell>
        <mxCell id="JYZI23fgHM0VChxFwIGK-99" value="core" style="rounded=1;whiteSpace=wrap;html=1;fillColor=#a0522d;fontColor=#ffffff;strokeColor=none;" parent="JYZI23fgHM0VChxFwIGK-192" vertex="1">
          <mxGeometry x="195" y="240" width="30" height="40" as="geometry" />
        </mxCell>
        <mxCell id="JYZI23fgHM0VChxFwIGK-100" value="core" style="rounded=1;whiteSpace=wrap;html=1;fillColor=#a0522d;fontColor=#ffffff;strokeColor=none;" parent="JYZI23fgHM0VChxFwIGK-192" vertex="1">
          <mxGeometry x="235" y="240" width="30" height="40" as="geometry" />
        </mxCell>
        <mxCell id="JYZI23fgHM0VChxFwIGK-101" value="core" style="rounded=1;whiteSpace=wrap;html=1;fillColor=#a0522d;fontColor=#ffffff;strokeColor=none;" parent="JYZI23fgHM0VChxFwIGK-192" vertex="1">
          <mxGeometry x="275" y="240" width="30" height="40" as="geometry" />
        </mxCell>
        <mxCell id="JYZI23fgHM0VChxFwIGK-9" value="" style="endArrow=none;dashed=1;html=1;dashPattern=1 1;strokeWidth=1;rounded=0;" parent="JYZI23fgHM0VChxFwIGK-192" edge="1">
          <mxGeometry width="50" height="50" relative="1" as="geometry">
            <mxPoint x="70" y="322" as="sourcePoint" />
            <mxPoint x="70" y="22" as="targetPoint" />
          </mxGeometry>
        </mxCell>
        <mxCell id="JYZI23fgHM0VChxFwIGK-10" value="" style="endArrow=none;dashed=1;html=1;dashPattern=1 1;strokeWidth=1;rounded=0;" parent="JYZI23fgHM0VChxFwIGK-192" edge="1">
          <mxGeometry width="50" height="50" relative="1" as="geometry">
            <mxPoint x="110" y="322" as="sourcePoint" />
            <mxPoint x="110" y="22" as="targetPoint" />
          </mxGeometry>
        </mxCell>
        <mxCell id="JYZI23fgHM0VChxFwIGK-11" value="" style="endArrow=none;dashed=1;html=1;dashPattern=1 1;strokeWidth=1;rounded=0;" parent="JYZI23fgHM0VChxFwIGK-192" edge="1">
          <mxGeometry width="50" height="50" relative="1" as="geometry">
            <mxPoint x="150" y="322" as="sourcePoint" />
            <mxPoint x="150" y="22" as="targetPoint" />
          </mxGeometry>
        </mxCell>
        <mxCell id="JYZI23fgHM0VChxFwIGK-12" value="" style="endArrow=none;dashed=1;html=1;dashPattern=1 1;strokeWidth=1;rounded=0;" parent="JYZI23fgHM0VChxFwIGK-192" edge="1">
          <mxGeometry width="50" height="50" relative="1" as="geometry">
            <mxPoint x="29" y="322" as="sourcePoint" />
            <mxPoint x="29" y="22" as="targetPoint" />
          </mxGeometry>
        </mxCell>
        <mxCell id="JYZI23fgHM0VChxFwIGK-13" value="" style="endArrow=none;dashed=1;html=1;dashPattern=1 1;strokeWidth=1;rounded=0;" parent="JYZI23fgHM0VChxFwIGK-192" edge="1">
          <mxGeometry width="50" height="50" relative="1" as="geometry">
            <mxPoint x="190" y="322" as="sourcePoint" />
            <mxPoint x="190" y="22" as="targetPoint" />
          </mxGeometry>
        </mxCell>
        <mxCell id="JYZI23fgHM0VChxFwIGK-14" value="" style="endArrow=none;dashed=1;html=1;dashPattern=1 1;strokeWidth=1;rounded=0;" parent="JYZI23fgHM0VChxFwIGK-192" edge="1">
          <mxGeometry width="50" height="50" relative="1" as="geometry">
            <mxPoint x="230" y="322" as="sourcePoint" />
            <mxPoint x="230" y="22" as="targetPoint" />
          </mxGeometry>
        </mxCell>
        <mxCell id="JYZI23fgHM0VChxFwIGK-15" value="" style="endArrow=none;dashed=1;html=1;dashPattern=1 1;strokeWidth=1;rounded=0;" parent="JYZI23fgHM0VChxFwIGK-192" edge="1">
          <mxGeometry width="50" height="50" relative="1" as="geometry">
            <mxPoint x="270" y="322" as="sourcePoint" />
            <mxPoint x="270" y="22" as="targetPoint" />
          </mxGeometry>
        </mxCell>
        <mxCell id="JYZI23fgHM0VChxFwIGK-16" value="" style="endArrow=none;dashed=1;html=1;dashPattern=1 1;strokeWidth=1;rounded=0;" parent="JYZI23fgHM0VChxFwIGK-192" edge="1">
          <mxGeometry width="50" height="50" relative="1" as="geometry">
            <mxPoint x="310" y="322" as="sourcePoint" />
            <mxPoint x="310" y="22" as="targetPoint" />
          </mxGeometry>
        </mxCell>
        <mxCell id="JYZI23fgHM0VChxFwIGK-105" value="numa-node-0" style="text;html=1;align=center;verticalAlign=middle;whiteSpace=wrap;rounded=0;" parent="JYZI23fgHM0VChxFwIGK-192" vertex="1">
          <mxGeometry x="110" y="280" width="120" height="30" as="geometry" />
        </mxCell>
        <mxCell id="JYZI23fgHM0VChxFwIGK-165" value="" style="rounded=1;whiteSpace=wrap;html=1;fillColor=#d5e8d4;strokeColor=none;" parent="JYZI23fgHM0VChxFwIGK-192" vertex="1">
          <mxGeometry x="370" width="340" height="390" as="geometry" />
        </mxCell>
        <mxCell id="JYZI23fgHM0VChxFwIGK-166" value="&lt;span style=&quot;color: rgb(255, 255, 255);&quot;&gt;Interleave-Set (of PMem on socket-1)&lt;/span&gt;" style="rounded=1;whiteSpace=wrap;html=1;fillColor=#990000;strokeColor=none;" parent="JYZI23fgHM0VChxFwIGK-192" vertex="1">
          <mxGeometry x="400" y="70" width="280" height="40" as="geometry" />
        </mxCell>
        <mxCell id="JYZI23fgHM0VChxFwIGK-167" value="nvme2" style="rounded=1;whiteSpace=wrap;html=1;fillColor=#006600;strokeColor=none;fontColor=#FFFFFF;" parent="JYZI23fgHM0VChxFwIGK-192" vertex="1">
          <mxGeometry x="400" y="150" width="120" height="40" as="geometry" />
        </mxCell>
        <mxCell id="JYZI23fgHM0VChxFwIGK-168" value="&lt;font style=&quot;color: rgb(255, 255, 255);&quot;&gt;nvme3&lt;/font&gt;" style="rounded=1;whiteSpace=wrap;html=1;fillColor=#006600;strokeColor=none;" parent="JYZI23fgHM0VChxFwIGK-192" vertex="1">
          <mxGeometry x="560" y="150" width="120" height="40" as="geometry" />
        </mxCell>
        <mxCell id="JYZI23fgHM0VChxFwIGK-169" value="&lt;font style=&quot;font-size: 10px;&quot;&gt;target&lt;/font&gt;&lt;div&gt;&lt;span style=&quot;font-size: 10px;&quot;&gt;0&lt;/span&gt;&lt;/div&gt;" style="text;html=1;align=center;verticalAlign=middle;whiteSpace=wrap;rounded=0;" parent="JYZI23fgHM0VChxFwIGK-192" vertex="1">
          <mxGeometry x="400" y="23" width="40" height="30" as="geometry" />
        </mxCell>
        <mxCell id="JYZI23fgHM0VChxFwIGK-170" value="&lt;font style=&quot;font-size: 10px;&quot;&gt;target&lt;/font&gt;&lt;div&gt;&lt;span style=&quot;font-size: 10px;&quot;&gt;1&lt;/span&gt;&lt;/div&gt;" style="text;html=1;align=center;verticalAlign=middle;whiteSpace=wrap;rounded=0;" parent="JYZI23fgHM0VChxFwIGK-192" vertex="1">
          <mxGeometry x="440" y="23" width="40" height="30" as="geometry" />
        </mxCell>
        <mxCell id="JYZI23fgHM0VChxFwIGK-171" value="&lt;font style=&quot;font-size: 10px;&quot;&gt;target&lt;/font&gt;&lt;div&gt;&lt;span style=&quot;font-size: 10px;&quot;&gt;2&lt;/span&gt;&lt;/div&gt;" style="text;html=1;align=center;verticalAlign=middle;whiteSpace=wrap;rounded=0;" parent="JYZI23fgHM0VChxFwIGK-192" vertex="1">
          <mxGeometry x="480" y="23" width="40" height="30" as="geometry" />
        </mxCell>
        <mxCell id="JYZI23fgHM0VChxFwIGK-172" value="&lt;font style=&quot;font-size: 10px;&quot;&gt;target&lt;/font&gt;&lt;div&gt;&lt;span style=&quot;font-size: 10px;&quot;&gt;3&lt;/span&gt;&lt;/div&gt;" style="text;html=1;align=center;verticalAlign=middle;whiteSpace=wrap;rounded=0;" parent="JYZI23fgHM0VChxFwIGK-192" vertex="1">
          <mxGeometry x="560" y="23" width="40" height="30" as="geometry" />
        </mxCell>
        <mxCell id="JYZI23fgHM0VChxFwIGK-173" value="&lt;font style=&quot;font-size: 10px;&quot;&gt;target&lt;/font&gt;&lt;div&gt;&lt;span style=&quot;font-size: 10px;&quot;&gt;4&lt;/span&gt;&lt;/div&gt;" style="text;html=1;align=center;verticalAlign=middle;whiteSpace=wrap;rounded=0;" parent="JYZI23fgHM0VChxFwIGK-192" vertex="1">
          <mxGeometry x="600" y="23" width="40" height="30" as="geometry" />
        </mxCell>
        <mxCell id="JYZI23fgHM0VChxFwIGK-174" value="&lt;font style=&quot;font-size: 10px;&quot;&gt;target&lt;/font&gt;&lt;div&gt;&lt;span style=&quot;font-size: 10px;&quot;&gt;5&lt;/span&gt;&lt;/div&gt;" style="text;html=1;align=center;verticalAlign=middle;whiteSpace=wrap;rounded=0;" parent="JYZI23fgHM0VChxFwIGK-192" vertex="1">
          <mxGeometry x="640" y="23" width="40" height="30" as="geometry" />
        </mxCell>
        <mxCell id="JYZI23fgHM0VChxFwIGK-175" value="engine.1" style="text;html=1;align=center;verticalAlign=middle;whiteSpace=wrap;rounded=0;" parent="JYZI23fgHM0VChxFwIGK-192" vertex="1">
          <mxGeometry x="510" y="340" width="60" height="30" as="geometry" />
        </mxCell>
        <mxCell id="JYZI23fgHM0VChxFwIGK-176" value="" style="rounded=0;whiteSpace=wrap;html=1;fillColor=#fad7ac;strokeColor=none;" parent="JYZI23fgHM0VChxFwIGK-192" vertex="1">
          <mxGeometry x="400" y="228" width="280" height="80" as="geometry" />
        </mxCell>
        <mxCell id="JYZI23fgHM0VChxFwIGK-177" value="core" style="rounded=1;whiteSpace=wrap;html=1;fillColor=#a0522d;fontColor=#ffffff;strokeColor=none;" parent="JYZI23fgHM0VChxFwIGK-192" vertex="1">
          <mxGeometry x="405" y="240" width="30" height="40" as="geometry" />
        </mxCell>
        <mxCell id="JYZI23fgHM0VChxFwIGK-178" value="core" style="rounded=1;whiteSpace=wrap;html=1;fillColor=#a0522d;fontColor=#ffffff;strokeColor=none;" parent="JYZI23fgHM0VChxFwIGK-192" vertex="1">
          <mxGeometry x="445" y="240" width="30" height="40" as="geometry" />
        </mxCell>
        <mxCell id="JYZI23fgHM0VChxFwIGK-179" value="core" style="rounded=1;whiteSpace=wrap;html=1;fillColor=#a0522d;fontColor=#ffffff;strokeColor=none;" parent="JYZI23fgHM0VChxFwIGK-192" vertex="1">
          <mxGeometry x="485" y="240" width="30" height="40" as="geometry" />
        </mxCell>
        <mxCell id="JYZI23fgHM0VChxFwIGK-180" value="core" style="rounded=1;whiteSpace=wrap;html=1;fillColor=#a0522d;fontColor=#ffffff;strokeColor=none;" parent="JYZI23fgHM0VChxFwIGK-192" vertex="1">
          <mxGeometry x="565" y="240" width="30" height="40" as="geometry" />
        </mxCell>
        <mxCell id="JYZI23fgHM0VChxFwIGK-181" value="core" style="rounded=1;whiteSpace=wrap;html=1;fillColor=#a0522d;fontColor=#ffffff;strokeColor=none;" parent="JYZI23fgHM0VChxFwIGK-192" vertex="1">
          <mxGeometry x="605" y="240" width="30" height="40" as="geometry" />
        </mxCell>
        <mxCell id="JYZI23fgHM0VChxFwIGK-182" value="core" style="rounded=1;whiteSpace=wrap;html=1;fillColor=#a0522d;fontColor=#ffffff;strokeColor=none;" parent="JYZI23fgHM0VChxFwIGK-192" vertex="1">
          <mxGeometry x="645" y="240" width="30" height="40" as="geometry" />
        </mxCell>
        <mxCell id="JYZI23fgHM0VChxFwIGK-183" value="" style="endArrow=none;dashed=1;html=1;dashPattern=1 1;strokeWidth=1;rounded=0;" parent="JYZI23fgHM0VChxFwIGK-192" edge="1">
          <mxGeometry width="50" height="50" relative="1" as="geometry">
            <mxPoint x="440" y="322" as="sourcePoint" />
            <mxPoint x="440" y="22" as="targetPoint" />
          </mxGeometry>
        </mxCell>
        <mxCell id="JYZI23fgHM0VChxFwIGK-184" value="" style="endArrow=none;dashed=1;html=1;dashPattern=1 1;strokeWidth=1;rounded=0;" parent="JYZI23fgHM0VChxFwIGK-192" edge="1">
          <mxGeometry width="50" height="50" relative="1" as="geometry">
            <mxPoint x="480" y="322" as="sourcePoint" />
            <mxPoint x="480" y="22" as="targetPoint" />
          </mxGeometry>
        </mxCell>
        <mxCell id="JYZI23fgHM0VChxFwIGK-185" value="" style="endArrow=none;dashed=1;html=1;dashPattern=1 1;strokeWidth=1;rounded=0;" parent="JYZI23fgHM0VChxFwIGK-192" edge="1">
          <mxGeometry width="50" height="50" relative="1" as="geometry">
            <mxPoint x="520" y="322" as="sourcePoint" />
            <mxPoint x="520" y="22" as="targetPoint" />
          </mxGeometry>
        </mxCell>
        <mxCell id="JYZI23fgHM0VChxFwIGK-186" value="" style="endArrow=none;dashed=1;html=1;dashPattern=1 1;strokeWidth=1;rounded=0;" parent="JYZI23fgHM0VChxFwIGK-192" edge="1">
          <mxGeometry width="50" height="50" relative="1" as="geometry">
            <mxPoint x="399" y="322" as="sourcePoint" />
            <mxPoint x="399" y="22" as="targetPoint" />
          </mxGeometry>
        </mxCell>
        <mxCell id="JYZI23fgHM0VChxFwIGK-187" value="" style="endArrow=none;dashed=1;html=1;dashPattern=1 1;strokeWidth=1;rounded=0;" parent="JYZI23fgHM0VChxFwIGK-192" edge="1">
          <mxGeometry width="50" height="50" relative="1" as="geometry">
            <mxPoint x="560" y="322" as="sourcePoint" />
            <mxPoint x="560" y="22" as="targetPoint" />
          </mxGeometry>
        </mxCell>
        <mxCell id="JYZI23fgHM0VChxFwIGK-188" value="" style="endArrow=none;dashed=1;html=1;dashPattern=1 1;strokeWidth=1;rounded=0;" parent="JYZI23fgHM0VChxFwIGK-192" edge="1">
          <mxGeometry width="50" height="50" relative="1" as="geometry">
            <mxPoint x="600" y="322" as="sourcePoint" />
            <mxPoint x="600" y="22" as="targetPoint" />
          </mxGeometry>
        </mxCell>
        <mxCell id="JYZI23fgHM0VChxFwIGK-189" value="" style="endArrow=none;dashed=1;html=1;dashPattern=1 1;strokeWidth=1;rounded=0;" parent="JYZI23fgHM0VChxFwIGK-192" edge="1">
          <mxGeometry width="50" height="50" relative="1" as="geometry">
            <mxPoint x="640" y="322" as="sourcePoint" />
            <mxPoint x="640" y="22" as="targetPoint" />
          </mxGeometry>
        </mxCell>
        <mxCell id="JYZI23fgHM0VChxFwIGK-190" value="" style="endArrow=none;dashed=1;html=1;dashPattern=1 1;strokeWidth=1;rounded=0;" parent="JYZI23fgHM0VChxFwIGK-192" edge="1">
          <mxGeometry width="50" height="50" relative="1" as="geometry">
            <mxPoint x="680" y="322" as="sourcePoint" />
            <mxPoint x="680" y="22" as="targetPoint" />
          </mxGeometry>
        </mxCell>
        <mxCell id="JYZI23fgHM0VChxFwIGK-191" value="numa-node-1" style="text;html=1;align=center;verticalAlign=middle;whiteSpace=wrap;rounded=0;" parent="JYZI23fgHM0VChxFwIGK-192" vertex="1">
          <mxGeometry x="480" y="280" width="120" height="30" as="geometry" />
        </mxCell>
        <mxCell id="JYZI23fgHM0VChxFwIGK-340" value="&lt;font&gt;一个pool跨多个target；&lt;/font&gt;&lt;div&gt;&lt;font&gt;一个target承载多个pool的shard；&lt;/font&gt;&lt;/div&gt;&lt;div&gt;&lt;font&gt;一个pool shard即一个VOS (Versioning Object Store)；&lt;/font&gt;&lt;/div&gt;&lt;div&gt;一个VOS也叫做一个vpool；&lt;/div&gt;&lt;div&gt;&lt;font&gt;&lt;br&gt;&lt;/font&gt;&lt;/div&gt;" style="text;html=1;align=left;verticalAlign=middle;whiteSpace=wrap;rounded=0;spacingTop=0;fontSize=14;spacing=2;" parent="1" vertex="1">
          <mxGeometry x="40" y="760" width="445" height="80" as="geometry" />
        </mxCell>
        <mxCell id="1cPVcIs8ewQXnvHarOgk-1" value="" style="group" parent="1" vertex="1" connectable="0">
          <mxGeometry x="40" y="840" width="1050" height="540" as="geometry" />
        </mxCell>
        <mxCell id="1cPVcIs8ewQXnvHarOgk-2" value="" style="rounded=1;whiteSpace=wrap;html=1;fillColor=#E6E6E6;strokeColor=default;container=0;" parent="1cPVcIs8ewQXnvHarOgk-1" vertex="1">
          <mxGeometry y="190" width="330" height="130" as="geometry" />
        </mxCell>
        <mxCell id="1cPVcIs8ewQXnvHarOgk-3" value="server-A" style="text;html=1;align=center;verticalAlign=middle;whiteSpace=wrap;rounded=0;container=0;" parent="1cPVcIs8ewQXnvHarOgk-1" vertex="1">
          <mxGeometry x="135" y="280" width="60" height="30" as="geometry" />
        </mxCell>
        <mxCell id="1cPVcIs8ewQXnvHarOgk-4" value="target" style="rounded=1;whiteSpace=wrap;html=1;fillColor=#76608a;strokeColor=none;fontColor=#ffffff;container=0;" parent="1cPVcIs8ewQXnvHarOgk-1" vertex="1">
          <mxGeometry x="25" y="221" width="80" height="40" as="geometry" />
        </mxCell>
        <mxCell id="1cPVcIs8ewQXnvHarOgk-5" value="target" style="rounded=1;whiteSpace=wrap;html=1;fillColor=#76608a;strokeColor=none;fontColor=#ffffff;container=0;" parent="1cPVcIs8ewQXnvHarOgk-1" vertex="1">
          <mxGeometry x="125" y="221" width="80" height="40" as="geometry" />
        </mxCell>
        <mxCell id="1cPVcIs8ewQXnvHarOgk-6" value="target" style="rounded=1;whiteSpace=wrap;html=1;fillColor=#76608a;strokeColor=none;fontColor=#ffffff;container=0;" parent="1cPVcIs8ewQXnvHarOgk-1" vertex="1">
          <mxGeometry x="225" y="221" width="80" height="40" as="geometry" />
        </mxCell>
        <mxCell id="1cPVcIs8ewQXnvHarOgk-7" value="" style="rounded=1;whiteSpace=wrap;html=1;fillColor=#E6E6E6;strokeColor=default;container=0;" parent="1cPVcIs8ewQXnvHarOgk-1" vertex="1">
          <mxGeometry x="360" y="190" width="330" height="130" as="geometry" />
        </mxCell>
        <mxCell id="1cPVcIs8ewQXnvHarOgk-8" value="server-B" style="text;html=1;align=center;verticalAlign=middle;whiteSpace=wrap;rounded=0;container=0;" parent="1cPVcIs8ewQXnvHarOgk-1" vertex="1">
          <mxGeometry x="495" y="280" width="60" height="30" as="geometry" />
        </mxCell>
        <mxCell id="1cPVcIs8ewQXnvHarOgk-9" value="target" style="rounded=1;whiteSpace=wrap;html=1;fillColor=#76608a;strokeColor=none;fontColor=#ffffff;container=0;" parent="1cPVcIs8ewQXnvHarOgk-1" vertex="1">
          <mxGeometry x="385" y="221" width="80" height="40" as="geometry" />
        </mxCell>
        <mxCell id="1cPVcIs8ewQXnvHarOgk-10" value="target" style="rounded=1;whiteSpace=wrap;html=1;fillColor=#76608a;strokeColor=none;fontColor=#ffffff;container=0;" parent="1cPVcIs8ewQXnvHarOgk-1" vertex="1">
          <mxGeometry x="485" y="221" width="80" height="40" as="geometry" />
        </mxCell>
        <mxCell id="1cPVcIs8ewQXnvHarOgk-11" value="target" style="rounded=1;whiteSpace=wrap;html=1;fillColor=#76608a;strokeColor=none;fontColor=#ffffff;container=0;" parent="1cPVcIs8ewQXnvHarOgk-1" vertex="1">
          <mxGeometry x="585" y="221" width="80" height="40" as="geometry" />
        </mxCell>
        <mxCell id="1cPVcIs8ewQXnvHarOgk-12" value="" style="rounded=1;whiteSpace=wrap;html=1;fillColor=#E6E6E6;strokeColor=default;container=0;" parent="1cPVcIs8ewQXnvHarOgk-1" vertex="1">
          <mxGeometry x="720" y="190" width="330" height="130" as="geometry" />
        </mxCell>
        <mxCell id="1cPVcIs8ewQXnvHarOgk-13" value="server-C" style="text;html=1;align=center;verticalAlign=middle;whiteSpace=wrap;rounded=0;container=0;" parent="1cPVcIs8ewQXnvHarOgk-1" vertex="1">
          <mxGeometry x="855" y="280" width="60" height="30" as="geometry" />
        </mxCell>
        <mxCell id="1cPVcIs8ewQXnvHarOgk-14" value="target" style="rounded=1;whiteSpace=wrap;html=1;fillColor=#76608a;strokeColor=none;fontColor=#ffffff;container=0;" parent="1cPVcIs8ewQXnvHarOgk-1" vertex="1">
          <mxGeometry x="745" y="221" width="80" height="40" as="geometry" />
        </mxCell>
        <mxCell id="1cPVcIs8ewQXnvHarOgk-15" value="target" style="rounded=1;whiteSpace=wrap;html=1;fillColor=#76608a;strokeColor=none;fontColor=#ffffff;container=0;" parent="1cPVcIs8ewQXnvHarOgk-1" vertex="1">
          <mxGeometry x="845" y="221" width="80" height="40" as="geometry" />
        </mxCell>
        <mxCell id="1cPVcIs8ewQXnvHarOgk-16" value="target" style="rounded=1;whiteSpace=wrap;html=1;fillColor=#76608a;strokeColor=none;fontColor=#ffffff;container=0;" parent="1cPVcIs8ewQXnvHarOgk-1" vertex="1">
          <mxGeometry x="945" y="221" width="80" height="40" as="geometry" />
        </mxCell>
        <mxCell id="1cPVcIs8ewQXnvHarOgk-17" value="Pool-A" style="ellipse;whiteSpace=wrap;html=1;fillColor=#990000;fontColor=#ffffff;strokeColor=#B20000;" parent="1cPVcIs8ewQXnvHarOgk-1" vertex="1">
          <mxGeometry x="465" width="120" height="80" as="geometry" />
        </mxCell>
        <mxCell id="1cPVcIs8ewQXnvHarOgk-18" value="" style="endArrow=none;html=1;rounded=0;exitX=0.5;exitY=0;exitDx=0;exitDy=0;entryX=0.5;entryY=1;entryDx=0;entryDy=0;strokeColor=#990000;edgeStyle=orthogonalEdgeStyle;" parent="1cPVcIs8ewQXnvHarOgk-1" source="1cPVcIs8ewQXnvHarOgk-4" target="1cPVcIs8ewQXnvHarOgk-17" edge="1">
          <mxGeometry width="50" height="50" relative="1" as="geometry">
            <mxPoint y="221" as="sourcePoint" />
            <mxPoint x="590" y="100" as="targetPoint" />
          </mxGeometry>
        </mxCell>
        <mxCell id="1cPVcIs8ewQXnvHarOgk-19" value="" style="endArrow=none;html=1;rounded=0;exitX=0.5;exitY=0;exitDx=0;exitDy=0;entryX=0.5;entryY=1;entryDx=0;entryDy=0;strokeColor=#990000;edgeStyle=orthogonalEdgeStyle;" parent="1cPVcIs8ewQXnvHarOgk-1" source="1cPVcIs8ewQXnvHarOgk-5" target="1cPVcIs8ewQXnvHarOgk-17" edge="1">
          <mxGeometry width="50" height="50" relative="1" as="geometry">
            <mxPoint x="75" y="231" as="sourcePoint" />
            <mxPoint x="535" y="90" as="targetPoint" />
          </mxGeometry>
        </mxCell>
        <mxCell id="1cPVcIs8ewQXnvHarOgk-20" value="" style="endArrow=none;html=1;rounded=0;exitX=0.5;exitY=0;exitDx=0;exitDy=0;entryX=0.5;entryY=1;entryDx=0;entryDy=0;strokeColor=#990000;edgeStyle=orthogonalEdgeStyle;" parent="1cPVcIs8ewQXnvHarOgk-1" source="1cPVcIs8ewQXnvHarOgk-6" target="1cPVcIs8ewQXnvHarOgk-17" edge="1">
          <mxGeometry width="50" height="50" relative="1" as="geometry">
            <mxPoint x="175" y="231" as="sourcePoint" />
            <mxPoint x="535" y="90" as="targetPoint" />
          </mxGeometry>
        </mxCell>
        <mxCell id="1cPVcIs8ewQXnvHarOgk-21" value="" style="endArrow=none;html=1;rounded=0;exitX=0.5;exitY=0;exitDx=0;exitDy=0;entryX=0.5;entryY=1;entryDx=0;entryDy=0;strokeColor=#990000;edgeStyle=orthogonalEdgeStyle;" parent="1cPVcIs8ewQXnvHarOgk-1" source="1cPVcIs8ewQXnvHarOgk-9" target="1cPVcIs8ewQXnvHarOgk-17" edge="1">
          <mxGeometry width="50" height="50" relative="1" as="geometry">
            <mxPoint x="275" y="231" as="sourcePoint" />
            <mxPoint x="535" y="90" as="targetPoint" />
          </mxGeometry>
        </mxCell>
        <mxCell id="1cPVcIs8ewQXnvHarOgk-22" value="" style="endArrow=none;html=1;rounded=0;exitX=0.5;exitY=0;exitDx=0;exitDy=0;entryX=0.5;entryY=1;entryDx=0;entryDy=0;strokeColor=#990000;edgeStyle=orthogonalEdgeStyle;" parent="1cPVcIs8ewQXnvHarOgk-1" source="1cPVcIs8ewQXnvHarOgk-10" target="1cPVcIs8ewQXnvHarOgk-17" edge="1">
          <mxGeometry width="50" height="50" relative="1" as="geometry">
            <mxPoint x="435" y="231" as="sourcePoint" />
            <mxPoint x="535" y="90" as="targetPoint" />
          </mxGeometry>
        </mxCell>
        <mxCell id="1cPVcIs8ewQXnvHarOgk-23" value="" style="endArrow=none;html=1;rounded=0;exitX=0.5;exitY=0;exitDx=0;exitDy=0;entryX=0.5;entryY=1;entryDx=0;entryDy=0;strokeColor=#990000;edgeStyle=orthogonalEdgeStyle;" parent="1cPVcIs8ewQXnvHarOgk-1" source="1cPVcIs8ewQXnvHarOgk-11" target="1cPVcIs8ewQXnvHarOgk-17" edge="1">
          <mxGeometry width="50" height="50" relative="1" as="geometry">
            <mxPoint x="535" y="231" as="sourcePoint" />
            <mxPoint x="535" y="90" as="targetPoint" />
          </mxGeometry>
        </mxCell>
        <mxCell id="1cPVcIs8ewQXnvHarOgk-24" value="" style="endArrow=none;html=1;rounded=0;exitX=0.5;exitY=0;exitDx=0;exitDy=0;entryX=0.5;entryY=1;entryDx=0;entryDy=0;strokeColor=#990000;edgeStyle=orthogonalEdgeStyle;" parent="1cPVcIs8ewQXnvHarOgk-1" source="1cPVcIs8ewQXnvHarOgk-14" target="1cPVcIs8ewQXnvHarOgk-17" edge="1">
          <mxGeometry width="50" height="50" relative="1" as="geometry">
            <mxPoint x="635" y="231" as="sourcePoint" />
            <mxPoint x="535" y="90" as="targetPoint" />
          </mxGeometry>
        </mxCell>
        <mxCell id="1cPVcIs8ewQXnvHarOgk-25" value="" style="endArrow=none;html=1;rounded=0;exitX=0.5;exitY=0;exitDx=0;exitDy=0;entryX=0.5;entryY=1;entryDx=0;entryDy=0;strokeColor=#990000;edgeStyle=orthogonalEdgeStyle;" parent="1cPVcIs8ewQXnvHarOgk-1" source="1cPVcIs8ewQXnvHarOgk-15" target="1cPVcIs8ewQXnvHarOgk-17" edge="1">
          <mxGeometry width="50" height="50" relative="1" as="geometry">
            <mxPoint x="795" y="231" as="sourcePoint" />
            <mxPoint x="535" y="90" as="targetPoint" />
          </mxGeometry>
        </mxCell>
        <mxCell id="1cPVcIs8ewQXnvHarOgk-26" value="" style="endArrow=none;html=1;rounded=0;exitX=0.5;exitY=0;exitDx=0;exitDy=0;entryX=0.5;entryY=1;entryDx=0;entryDy=0;strokeColor=#990000;edgeStyle=orthogonalEdgeStyle;" parent="1cPVcIs8ewQXnvHarOgk-1" source="1cPVcIs8ewQXnvHarOgk-16" target="1cPVcIs8ewQXnvHarOgk-17" edge="1">
          <mxGeometry width="50" height="50" relative="1" as="geometry">
            <mxPoint x="895" y="231" as="sourcePoint" />
            <mxPoint x="535" y="90" as="targetPoint" />
          </mxGeometry>
        </mxCell>
        <mxCell id="1cPVcIs8ewQXnvHarOgk-27" value="Pool-B" style="ellipse;whiteSpace=wrap;html=1;fillColor=#004C99;fontColor=#ffffff;strokeColor=#001DBC;" parent="1cPVcIs8ewQXnvHarOgk-1" vertex="1">
          <mxGeometry x="240" y="460" width="120" height="80" as="geometry" />
        </mxCell>
        <mxCell id="1cPVcIs8ewQXnvHarOgk-28" value="" style="endArrow=none;html=1;rounded=0;exitX=0.5;exitY=0;exitDx=0;exitDy=0;entryX=0.5;entryY=1;entryDx=0;entryDy=0;strokeColor=#000099;edgeStyle=orthogonalEdgeStyle;curved=1;" parent="1cPVcIs8ewQXnvHarOgk-1" source="1cPVcIs8ewQXnvHarOgk-27" target="1cPVcIs8ewQXnvHarOgk-4" edge="1">
          <mxGeometry width="50" height="50" relative="1" as="geometry">
            <mxPoint x="270" y="580" as="sourcePoint" />
            <mxPoint x="10" y="410" as="targetPoint" />
          </mxGeometry>
        </mxCell>
        <mxCell id="1cPVcIs8ewQXnvHarOgk-29" value="" style="endArrow=none;html=1;rounded=0;exitX=0.5;exitY=0;exitDx=0;exitDy=0;entryX=0.5;entryY=1;entryDx=0;entryDy=0;strokeColor=#000099;edgeStyle=orthogonalEdgeStyle;curved=1;" parent="1cPVcIs8ewQXnvHarOgk-1" source="1cPVcIs8ewQXnvHarOgk-27" target="1cPVcIs8ewQXnvHarOgk-9" edge="1">
          <mxGeometry width="50" height="50" relative="1" as="geometry">
            <mxPoint x="350" y="579" as="sourcePoint" />
            <mxPoint x="75" y="271" as="targetPoint" />
          </mxGeometry>
        </mxCell>
        <mxCell id="1cPVcIs8ewQXnvHarOgk-30" value="" style="endArrow=none;html=1;rounded=0;exitX=0.5;exitY=0;exitDx=0;exitDy=0;entryX=0.5;entryY=1;entryDx=0;entryDy=0;strokeColor=#000099;edgeStyle=orthogonalEdgeStyle;curved=1;" parent="1cPVcIs8ewQXnvHarOgk-1" source="1cPVcIs8ewQXnvHarOgk-27" target="1cPVcIs8ewQXnvHarOgk-14" edge="1">
          <mxGeometry width="50" height="50" relative="1" as="geometry">
            <mxPoint x="265" y="500" as="sourcePoint" />
            <mxPoint x="435" y="271" as="targetPoint" />
          </mxGeometry>
        </mxCell>
        <mxCell id="1cPVcIs8ewQXnvHarOgk-31" value="Pool-C" style="ellipse;whiteSpace=wrap;html=1;fillColor=#009900;fontColor=#ffffff;strokeColor=#005700;" parent="1cPVcIs8ewQXnvHarOgk-1" vertex="1">
          <mxGeometry x="625" y="460" width="120" height="80" as="geometry" />
        </mxCell>
        <mxCell id="1cPVcIs8ewQXnvHarOgk-32" value="" style="endArrow=none;html=1;rounded=0;exitX=0.5;exitY=0;exitDx=0;exitDy=0;strokeColor=#009900;entryX=0.5;entryY=1;entryDx=0;entryDy=0;" parent="1cPVcIs8ewQXnvHarOgk-1" source="1cPVcIs8ewQXnvHarOgk-31" target="1cPVcIs8ewQXnvHarOgk-5" edge="1">
          <mxGeometry width="50" height="50" relative="1" as="geometry">
            <mxPoint x="970" y="1240" as="sourcePoint" />
            <mxPoint x="420" y="610" as="targetPoint" />
          </mxGeometry>
        </mxCell>
        <mxCell id="1cPVcIs8ewQXnvHarOgk-33" value="" style="endArrow=none;html=1;rounded=0;exitX=0.5;exitY=0;exitDx=0;exitDy=0;strokeColor=#009900;entryX=0.5;entryY=1;entryDx=0;entryDy=0;" parent="1cPVcIs8ewQXnvHarOgk-1" source="1cPVcIs8ewQXnvHarOgk-31" target="1cPVcIs8ewQXnvHarOgk-6" edge="1">
          <mxGeometry width="50" height="50" relative="1" as="geometry">
            <mxPoint x="650" y="500" as="sourcePoint" />
            <mxPoint x="175" y="271" as="targetPoint" />
          </mxGeometry>
        </mxCell>
        <mxCell id="1cPVcIs8ewQXnvHarOgk-34" value="" style="endArrow=none;html=1;rounded=0;exitX=0.5;exitY=0;exitDx=0;exitDy=0;strokeColor=#009900;entryX=0.5;entryY=1;entryDx=0;entryDy=0;" parent="1cPVcIs8ewQXnvHarOgk-1" source="1cPVcIs8ewQXnvHarOgk-31" target="1cPVcIs8ewQXnvHarOgk-10" edge="1">
          <mxGeometry width="50" height="50" relative="1" as="geometry">
            <mxPoint x="650" y="500" as="sourcePoint" />
            <mxPoint x="275" y="271" as="targetPoint" />
          </mxGeometry>
        </mxCell>
        <mxCell id="1cPVcIs8ewQXnvHarOgk-35" value="" style="endArrow=none;html=1;rounded=0;exitX=0.5;exitY=0;exitDx=0;exitDy=0;strokeColor=#009900;entryX=0.5;entryY=1;entryDx=0;entryDy=0;" parent="1cPVcIs8ewQXnvHarOgk-1" source="1cPVcIs8ewQXnvHarOgk-31" target="1cPVcIs8ewQXnvHarOgk-11" edge="1">
          <mxGeometry width="50" height="50" relative="1" as="geometry">
            <mxPoint x="650" y="500" as="sourcePoint" />
            <mxPoint x="535" y="271" as="targetPoint" />
          </mxGeometry>
        </mxCell>
        <mxCell id="1cPVcIs8ewQXnvHarOgk-36" value="" style="endArrow=none;html=1;rounded=0;exitX=0.5;exitY=0;exitDx=0;exitDy=0;strokeColor=#009900;entryX=0.5;entryY=1;entryDx=0;entryDy=0;" parent="1cPVcIs8ewQXnvHarOgk-1" source="1cPVcIs8ewQXnvHarOgk-31" target="1cPVcIs8ewQXnvHarOgk-15" edge="1">
          <mxGeometry width="50" height="50" relative="1" as="geometry">
            <mxPoint x="650" y="500" as="sourcePoint" />
            <mxPoint x="635" y="271" as="targetPoint" />
          </mxGeometry>
        </mxCell>
        <mxCell id="1cPVcIs8ewQXnvHarOgk-37" value="" style="endArrow=none;html=1;rounded=0;exitX=0.5;exitY=0;exitDx=0;exitDy=0;strokeColor=#009900;entryX=0.5;entryY=1;entryDx=0;entryDy=0;" parent="1cPVcIs8ewQXnvHarOgk-1" source="1cPVcIs8ewQXnvHarOgk-31" target="1cPVcIs8ewQXnvHarOgk-16" edge="1">
          <mxGeometry width="50" height="50" relative="1" as="geometry">
            <mxPoint x="650" y="500" as="sourcePoint" />
            <mxPoint x="895" y="271" as="targetPoint" />
          </mxGeometry>
        </mxCell>
        <mxCell id="JYZI23fgHM0VChxFwIGK-361" value="" style="rounded=1;whiteSpace=wrap;html=1;container=0;" parent="1" vertex="1">
          <mxGeometry x="40" y="1480" width="490" height="540" as="geometry" />
        </mxCell>
        <mxCell id="JYZI23fgHM0VChxFwIGK-341" value="" style="rounded=1;whiteSpace=wrap;html=1;fillColor=#76608a;strokeColor=none;fontColor=#ffffff;container=0;" parent="1" vertex="1">
          <mxGeometry x="95" y="1699" width="360" height="210" as="geometry" />
        </mxCell>
        <mxCell id="JYZI23fgHM0VChxFwIGK-343" value="Pool-A" style="ellipse;whiteSpace=wrap;html=1;fillColor=#990000;fontColor=#ffffff;strokeColor=#B20000;container=0;" parent="1" vertex="1">
          <mxGeometry x="185" y="1540" width="120" height="80" as="geometry" />
        </mxCell>
        <mxCell id="JYZI23fgHM0VChxFwIGK-344" value="Pool-B" style="ellipse;whiteSpace=wrap;html=1;fillColor=#004C99;fontColor=#ffffff;strokeColor=#001DBC;container=0;" parent="1" vertex="1">
          <mxGeometry x="355" y="1540" width="120" height="80" as="geometry" />
        </mxCell>
        <mxCell id="JYZI23fgHM0VChxFwIGK-345" value="" style="endArrow=none;html=1;rounded=0;exitX=0;exitY=0;exitDx=0;exitDy=0;entryX=0.5;entryY=1;entryDx=0;entryDy=0;edgeStyle=orthogonalEdgeStyle;strokeColor=#990000;curved=1;" parent="1" source="JYZI23fgHM0VChxFwIGK-341" target="JYZI23fgHM0VChxFwIGK-343" edge="1">
          <mxGeometry width="50" height="50" relative="1" as="geometry">
            <mxPoint x="695" y="1280" as="sourcePoint" />
            <mxPoint x="745" y="1230" as="targetPoint" />
          </mxGeometry>
        </mxCell>
        <mxCell id="JYZI23fgHM0VChxFwIGK-346" value="" style="endArrow=none;html=1;rounded=0;exitX=0.75;exitY=0;exitDx=0;exitDy=0;entryX=0.5;entryY=1;entryDx=0;entryDy=0;edgeStyle=orthogonalEdgeStyle;strokeColor=#990000;curved=1;" parent="1" source="JYZI23fgHM0VChxFwIGK-341" target="JYZI23fgHM0VChxFwIGK-343" edge="1">
          <mxGeometry width="50" height="50" relative="1" as="geometry">
            <mxPoint x="105" y="1710" as="sourcePoint" />
            <mxPoint x="255" y="1630" as="targetPoint" />
          </mxGeometry>
        </mxCell>
        <mxCell id="JYZI23fgHM0VChxFwIGK-347" value="70%" style="text;html=1;align=center;verticalAlign=middle;whiteSpace=wrap;rounded=0;container=0;" parent="1" vertex="1">
          <mxGeometry x="215" y="1660" width="60" height="30" as="geometry" />
        </mxCell>
        <mxCell id="JYZI23fgHM0VChxFwIGK-348" value="" style="endArrow=none;html=1;rounded=0;exitX=0.75;exitY=0;exitDx=0;exitDy=0;entryX=0.5;entryY=1;entryDx=0;entryDy=0;edgeStyle=orthogonalEdgeStyle;strokeColor=#000099;curved=1;" parent="1" source="JYZI23fgHM0VChxFwIGK-341" target="JYZI23fgHM0VChxFwIGK-344" edge="1">
          <mxGeometry width="50" height="50" relative="1" as="geometry">
            <mxPoint x="375" y="1710" as="sourcePoint" />
            <mxPoint x="255" y="1630" as="targetPoint" />
          </mxGeometry>
        </mxCell>
        <mxCell id="JYZI23fgHM0VChxFwIGK-349" value="" style="endArrow=none;html=1;rounded=0;exitX=1;exitY=0;exitDx=0;exitDy=0;entryX=0.5;entryY=1;entryDx=0;entryDy=0;edgeStyle=orthogonalEdgeStyle;strokeColor=#000099;curved=1;" parent="1" source="JYZI23fgHM0VChxFwIGK-341" target="JYZI23fgHM0VChxFwIGK-344" edge="1">
          <mxGeometry width="50" height="50" relative="1" as="geometry">
            <mxPoint x="375" y="1710" as="sourcePoint" />
            <mxPoint x="475" y="1630" as="targetPoint" />
          </mxGeometry>
        </mxCell>
        <mxCell id="JYZI23fgHM0VChxFwIGK-350" value="30%" style="text;html=1;align=center;verticalAlign=middle;whiteSpace=wrap;rounded=0;container=0;" parent="1" vertex="1">
          <mxGeometry x="393" y="1660" width="60" height="30" as="geometry" />
        </mxCell>
        <mxCell id="JYZI23fgHM0VChxFwIGK-351" value="&amp;nbsp;a piece of nvme" style="rounded=1;whiteSpace=wrap;html=1;fillColor=#006600;strokeColor=none;fontColor=#FFFFFF;container=0;" parent="1" vertex="1">
          <mxGeometry x="115" y="1726" width="321.25" height="40" as="geometry" />
        </mxCell>
        <mxCell id="JYZI23fgHM0VChxFwIGK-352" value="&lt;font style=&quot;color: rgb(255, 255, 255);&quot;&gt;a piece of SCM&lt;/font&gt;" style="rounded=1;whiteSpace=wrap;html=1;fillColor=#990000;strokeColor=none;container=0;" parent="1" vertex="1">
          <mxGeometry x="116.25" y="1775" width="320" height="40" as="geometry" />
        </mxCell>
        <mxCell id="JYZI23fgHM0VChxFwIGK-354" value="a cpu core" style="rounded=1;whiteSpace=wrap;html=1;fillColor=#a0522d;fontColor=#ffffff;strokeColor=none;container=0;" parent="1" vertex="1">
          <mxGeometry x="115" y="1823" width="321.25" height="40" as="geometry" />
        </mxCell>
        <mxCell id="JYZI23fgHM0VChxFwIGK-355" value="" style="endArrow=none;dashed=1;html=1;rounded=0;" parent="1" edge="1">
          <mxGeometry width="50" height="50" relative="1" as="geometry">
            <mxPoint x="365" y="1980" as="sourcePoint" />
            <mxPoint x="365" y="1620" as="targetPoint" />
          </mxGeometry>
        </mxCell>
        <mxCell id="JYZI23fgHM0VChxFwIGK-356" value="&lt;font style=&quot;color: rgb(255, 255, 255); font-size: 18px;&quot;&gt;target&lt;/font&gt;" style="text;html=1;align=center;verticalAlign=middle;whiteSpace=wrap;rounded=0;container=0;" parent="1" vertex="1">
          <mxGeometry x="245.63" y="1870" width="60" height="30" as="geometry" />
        </mxCell>
        <mxCell id="JYZI23fgHM0VChxFwIGK-357" value="vpool-0&lt;div&gt;(VOS)&lt;/div&gt;" style="text;html=1;align=center;verticalAlign=middle;whiteSpace=wrap;rounded=0;container=0;" parent="1" vertex="1">
          <mxGeometry x="225" y="1930" width="60" height="30" as="geometry" />
        </mxCell>
        <mxCell id="JYZI23fgHM0VChxFwIGK-358" value="vpool-1&lt;div&gt;(VOS)&lt;/div&gt;" style="text;html=1;align=center;verticalAlign=middle;whiteSpace=wrap;rounded=0;container=0;" parent="1" vertex="1">
          <mxGeometry x="385" y="1930" width="60" height="30" as="geometry" />
        </mxCell>
      </root>
    </mxGraphModel>
  </diagram>
  <diagram id="xD80MNo4Ym0_GBvu08H7" name="md-on-ssd-phase1">
    <mxGraphModel dx="801" dy="488" grid="1" gridSize="10" guides="1" tooltips="1" connect="1" arrows="1" fold="1" page="1" pageScale="1" pageWidth="850" pageHeight="1100" math="0" shadow="0">
      <root>
        <mxCell id="0" />
        <mxCell id="1" parent="0" />
        <mxCell id="eaVu01EKKMKqN_9fJNtu-2" value="/mnt/daos0/{pool-uuid}/vos-{target-id}&lt;div&gt;(mapped in memory)&lt;/div&gt;&lt;div&gt;struct dav_obj&lt;/div&gt;" style="text;html=1;align=center;verticalAlign=middle;whiteSpace=wrap;rounded=0;" vertex="1" parent="1">
          <mxGeometry x="95" y="40" width="450" height="60" as="geometry" />
        </mxCell>
        <mxCell id="eaVu01EKKMKqN_9fJNtu-3" value="struct&amp;nbsp;dav_phdr (4k)" style="rounded=1;whiteSpace=wrap;html=1;strokeColor=#FFFFFF;fillColor=#f8cecc;" vertex="1" parent="1">
          <mxGeometry x="140" y="120" width="360" height="80" as="geometry" />
        </mxCell>
        <mxCell id="eaVu01EKKMKqN_9fJNtu-4" value="struct&amp;nbsp;heap_header (1k)" style="rounded=1;whiteSpace=wrap;html=1;fillColor=#d5e8d4;strokeColor=#FFFFFF;" vertex="1" parent="1">
          <mxGeometry x="140" y="200" width="360" height="40" as="geometry" />
        </mxCell>
        <mxCell id="eaVu01EKKMKqN_9fJNtu-6" value="struct zone_header (64B)" style="rounded=1;whiteSpace=wrap;html=1;fillColor=#cce5ff;strokeColor=#FFFFFF;" vertex="1" parent="1">
          <mxGeometry x="140" y="240" width="360" height="30" as="geometry" />
        </mxCell>
        <mxCell id="eaVu01EKKMKqN_9fJNtu-7" value="struct chunk_header (8B)" style="rounded=1;whiteSpace=wrap;html=1;fillColor=#ffcc99;strokeColor=#FFFFFF;" vertex="1" parent="1">
          <mxGeometry x="140" y="270" width="360" height="20" as="geometry" />
        </mxCell>
        <mxCell id="eaVu01EKKMKqN_9fJNtu-8" value="struct chunk_header (8B)" style="rounded=1;whiteSpace=wrap;html=1;fillColor=#ffcc99;strokeColor=#FFFFFF;" vertex="1" parent="1">
          <mxGeometry x="140" y="290" width="360" height="20" as="geometry" />
        </mxCell>
        <mxCell id="eaVu01EKKMKqN_9fJNtu-9" value="......" style="rounded=1;whiteSpace=wrap;html=1;fillColor=#ffcc99;strokeColor=#FFFFFF;" vertex="1" parent="1">
          <mxGeometry x="140" y="310" width="360" height="20" as="geometry" />
        </mxCell>
        <mxCell id="eaVu01EKKMKqN_9fJNtu-10" value="struct chunk_header (8B)" style="rounded=1;whiteSpace=wrap;html=1;fillColor=#ffcc99;strokeColor=#FFFFFF;" vertex="1" parent="1">
          <mxGeometry x="140" y="330" width="360" height="20" as="geometry" />
        </mxCell>
        <mxCell id="eaVu01EKKMKqN_9fJNtu-11" value="chunk (256K)" style="rounded=1;whiteSpace=wrap;html=1;fillColor=#eeeeee;strokeColor=#E6E6E6;" vertex="1" parent="1">
          <mxGeometry x="140" y="350" width="360" height="60" as="geometry" />
        </mxCell>
        <mxCell id="eaVu01EKKMKqN_9fJNtu-12" value="chunk (256K)" style="rounded=1;whiteSpace=wrap;html=1;fillColor=#eeeeee;strokeColor=#E6E6E6;" vertex="1" parent="1">
          <mxGeometry x="140" y="410" width="360" height="60" as="geometry" />
        </mxCell>
        <mxCell id="eaVu01EKKMKqN_9fJNtu-13" value="......" style="rounded=1;whiteSpace=wrap;html=1;fillColor=#eeeeee;strokeColor=#E6E6E6;" vertex="1" parent="1">
          <mxGeometry x="140" y="470" width="360" height="60" as="geometry" />
        </mxCell>
        <mxCell id="eaVu01EKKMKqN_9fJNtu-14" value="chunk (256K)" style="rounded=1;whiteSpace=wrap;html=1;fillColor=#eeeeee;strokeColor=#E6E6E6;" vertex="1" parent="1">
          <mxGeometry x="140" y="530" width="360" height="60" as="geometry" />
        </mxCell>
        <mxCell id="eaVu01EKKMKqN_9fJNtu-15" value="struct zone_header (64B)" style="rounded=1;whiteSpace=wrap;html=1;fillColor=#cce5ff;strokeColor=#FFFFFF;" vertex="1" parent="1">
          <mxGeometry x="140" y="590" width="360" height="30" as="geometry" />
        </mxCell>
        <mxCell id="eaVu01EKKMKqN_9fJNtu-16" value="struct chunk_header (8B)" style="rounded=1;whiteSpace=wrap;html=1;fillColor=#ffcc99;strokeColor=#FFFFFF;" vertex="1" parent="1">
          <mxGeometry x="140" y="620" width="360" height="20" as="geometry" />
        </mxCell>
        <mxCell id="eaVu01EKKMKqN_9fJNtu-17" value="struct chunk_header (8B)" style="rounded=1;whiteSpace=wrap;html=1;fillColor=#ffcc99;strokeColor=#FFFFFF;" vertex="1" parent="1">
          <mxGeometry x="140" y="640" width="360" height="20" as="geometry" />
        </mxCell>
        <mxCell id="eaVu01EKKMKqN_9fJNtu-18" value="......" style="rounded=1;whiteSpace=wrap;html=1;fillColor=#ffcc99;strokeColor=#FFFFFF;" vertex="1" parent="1">
          <mxGeometry x="140" y="660" width="360" height="20" as="geometry" />
        </mxCell>
        <mxCell id="eaVu01EKKMKqN_9fJNtu-19" value="struct chunk_header (8B)" style="rounded=1;whiteSpace=wrap;html=1;fillColor=#ffcc99;strokeColor=#FFFFFF;" vertex="1" parent="1">
          <mxGeometry x="140" y="680" width="360" height="20" as="geometry" />
        </mxCell>
        <mxCell id="eaVu01EKKMKqN_9fJNtu-20" value="chunk (256K)" style="rounded=1;whiteSpace=wrap;html=1;fillColor=#eeeeee;strokeColor=#E6E6E6;" vertex="1" parent="1">
          <mxGeometry x="140" y="700" width="360" height="60" as="geometry" />
        </mxCell>
        <mxCell id="eaVu01EKKMKqN_9fJNtu-21" value="chunk (256K)" style="rounded=1;whiteSpace=wrap;html=1;fillColor=#eeeeee;strokeColor=#E6E6E6;" vertex="1" parent="1">
          <mxGeometry x="140" y="760" width="360" height="60" as="geometry" />
        </mxCell>
        <mxCell id="eaVu01EKKMKqN_9fJNtu-22" value="......" style="rounded=1;whiteSpace=wrap;html=1;fillColor=#eeeeee;strokeColor=#E6E6E6;" vertex="1" parent="1">
          <mxGeometry x="140" y="820" width="360" height="60" as="geometry" />
        </mxCell>
        <mxCell id="eaVu01EKKMKqN_9fJNtu-23" value="chunk (256K)" style="rounded=1;whiteSpace=wrap;html=1;fillColor=#eeeeee;strokeColor=#E6E6E6;" vertex="1" parent="1">
          <mxGeometry x="140" y="880" width="360" height="60" as="geometry" />
        </mxCell>
        <mxCell id="eaVu01EKKMKqN_9fJNtu-26" value="一个zone&lt;div&gt;65528个chunk&lt;/div&gt;&lt;div&gt;15.998 GiB&lt;/div&gt;" style="text;html=1;align=center;verticalAlign=middle;whiteSpace=wrap;rounded=0;" vertex="1" parent="1">
          <mxGeometry x="10" y="385" width="100" height="60" as="geometry" />
        </mxCell>
        <mxCell id="eaVu01EKKMKqN_9fJNtu-27" value="" style="shape=curlyBracket;whiteSpace=wrap;html=1;rounded=1;labelPosition=left;verticalLabelPosition=middle;align=right;verticalAlign=middle;strokeWidth=0.5;" vertex="1" parent="1">
          <mxGeometry x="110" y="590" width="20" height="350" as="geometry" />
        </mxCell>
        <mxCell id="eaVu01EKKMKqN_9fJNtu-28" value="一个zone&lt;div&gt;65528个chunk&lt;/div&gt;&lt;div&gt;15.998 GiB&lt;/div&gt;" style="text;html=1;align=center;verticalAlign=middle;whiteSpace=wrap;rounded=0;" vertex="1" parent="1">
          <mxGeometry x="10" y="735" width="100" height="60" as="geometry" />
        </mxCell>
        <mxCell id="eaVu01EKKMKqN_9fJNtu-29" value="" style="shape=curlyBracket;whiteSpace=wrap;html=1;rounded=1;labelPosition=left;verticalLabelPosition=middle;align=right;verticalAlign=middle;strokeWidth=0.5;" vertex="1" parent="1">
          <mxGeometry x="110" y="240" width="20" height="350" as="geometry" />
        </mxCell>
        <mxCell id="eaVu01EKKMKqN_9fJNtu-30" value="" style="endArrow=none;dashed=1;html=1;rounded=0;" edge="1" parent="1">
          <mxGeometry width="50" height="50" relative="1" as="geometry">
            <mxPoint x="60" y="590" as="sourcePoint" />
            <mxPoint x="540" y="590" as="targetPoint" />
          </mxGeometry>
        </mxCell>
        <mxCell id="eaVu01EKKMKqN_9fJNtu-31" value="" style="endArrow=none;dashed=1;html=1;rounded=0;" edge="1" parent="1">
          <mxGeometry width="50" height="50" relative="1" as="geometry">
            <mxPoint x="60" y="239.17000000000002" as="sourcePoint" />
            <mxPoint x="540" y="239.17000000000002" as="targetPoint" />
          </mxGeometry>
        </mxCell>
        <mxCell id="eaVu01EKKMKqN_9fJNtu-32" value="" style="endArrow=none;dashed=1;html=1;rounded=0;" edge="1" parent="1">
          <mxGeometry width="50" height="50" relative="1" as="geometry">
            <mxPoint x="60" y="940" as="sourcePoint" />
            <mxPoint x="540" y="940" as="targetPoint" />
          </mxGeometry>
        </mxCell>
        <mxCell id="eaVu01EKKMKqN_9fJNtu-49" value="" style="endArrow=classic;startArrow=classic;html=1;rounded=0;entryX=0;entryY=0.5;entryDx=0;entryDy=0;exitX=1;exitY=0.5;exitDx=0;exitDy=0;dashed=1;" edge="1" parent="1" source="eaVu01EKKMKqN_9fJNtu-44" target="eaVu01EKKMKqN_9fJNtu-36">
          <mxGeometry width="50" height="50" relative="1" as="geometry">
            <mxPoint x="690" y="530" as="sourcePoint" />
            <mxPoint x="740" y="480" as="targetPoint" />
          </mxGeometry>
        </mxCell>
        <mxCell id="eaVu01EKKMKqN_9fJNtu-50" value="" style="endArrow=classic;startArrow=classic;html=1;rounded=0;entryX=0;entryY=0.5;entryDx=0;entryDy=0;exitX=1;exitY=0.5;exitDx=0;exitDy=0;dashed=1;" edge="1" parent="1" source="eaVu01EKKMKqN_9fJNtu-45" target="eaVu01EKKMKqN_9fJNtu-40">
          <mxGeometry width="50" height="50" relative="1" as="geometry">
            <mxPoint x="1000" y="480" as="sourcePoint" />
            <mxPoint x="1040" y="480" as="targetPoint" />
          </mxGeometry>
        </mxCell>
        <mxCell id="eaVu01EKKMKqN_9fJNtu-51" value="" style="endArrow=classic;startArrow=classic;html=1;rounded=0;entryX=0;entryY=0.5;entryDx=0;entryDy=0;exitX=1;exitY=0.5;exitDx=0;exitDy=0;dashed=1;" edge="1" parent="1" source="eaVu01EKKMKqN_9fJNtu-46" target="eaVu01EKKMKqN_9fJNtu-41">
          <mxGeometry width="50" height="50" relative="1" as="geometry">
            <mxPoint x="1000" y="530" as="sourcePoint" />
            <mxPoint x="1040" y="530" as="targetPoint" />
          </mxGeometry>
        </mxCell>
        <mxCell id="eaVu01EKKMKqN_9fJNtu-52" value="" style="endArrow=classic;startArrow=classic;html=1;rounded=0;entryX=0;entryY=0.5;entryDx=0;entryDy=0;exitX=1;exitY=0.5;exitDx=0;exitDy=0;dashed=1;" edge="1" parent="1" source="eaVu01EKKMKqN_9fJNtu-48" target="eaVu01EKKMKqN_9fJNtu-43">
          <mxGeometry width="50" height="50" relative="1" as="geometry">
            <mxPoint x="1000" y="560" as="sourcePoint" />
            <mxPoint x="1040" y="560" as="targetPoint" />
          </mxGeometry>
        </mxCell>
        <mxCell id="eaVu01EKKMKqN_9fJNtu-67" value="" style="shape=curlyBracket;whiteSpace=wrap;html=1;rounded=1;flipH=1;labelPosition=right;verticalLabelPosition=middle;align=left;verticalAlign=middle;strokeWidth=0.5;" vertex="1" parent="1">
          <mxGeometry x="545" y="120" width="20" height="180" as="geometry" />
        </mxCell>
        <mxCell id="eaVu01EKKMKqN_9fJNtu-72" value="" style="shape=curlyBracket;whiteSpace=wrap;html=1;rounded=1;flipH=1;labelPosition=right;verticalLabelPosition=middle;align=left;verticalAlign=middle;strokeWidth=0.5;" vertex="1" parent="1">
          <mxGeometry x="545" y="304" width="20" height="180" as="geometry" />
        </mxCell>
        <mxCell id="eaVu01EKKMKqN_9fJNtu-73" value="" style="shape=curlyBracket;whiteSpace=wrap;html=1;rounded=1;flipH=1;labelPosition=right;verticalLabelPosition=middle;align=left;verticalAlign=middle;strokeWidth=0.5;" vertex="1" parent="1">
          <mxGeometry x="545" y="489" width="20" height="180" as="geometry" />
        </mxCell>
        <mxCell id="eaVu01EKKMKqN_9fJNtu-74" value="" style="shape=curlyBracket;whiteSpace=wrap;html=1;rounded=1;flipH=1;labelPosition=right;verticalLabelPosition=middle;align=left;verticalAlign=middle;strokeWidth=0.5;" vertex="1" parent="1">
          <mxGeometry x="545" y="760" width="20" height="180" as="geometry" />
        </mxCell>
        <mxCell id="eaVu01EKKMKqN_9fJNtu-75" value="" style="endArrow=classic;html=1;rounded=0;entryX=0.1;entryY=0.5;entryDx=0;entryDy=0;entryPerimeter=0;exitX=0;exitY=0.5;exitDx=0;exitDy=0;dashed=1;" edge="1" parent="1" source="eaVu01EKKMKqN_9fJNtu-44" target="eaVu01EKKMKqN_9fJNtu-67">
          <mxGeometry width="50" height="50" relative="1" as="geometry">
            <mxPoint x="620" y="530" as="sourcePoint" />
            <mxPoint x="670" y="480" as="targetPoint" />
          </mxGeometry>
        </mxCell>
        <mxCell id="eaVu01EKKMKqN_9fJNtu-82" value="16 MiB" style="edgeLabel;html=1;align=center;verticalAlign=middle;resizable=0;points=[];" vertex="1" connectable="0" parent="eaVu01EKKMKqN_9fJNtu-75">
          <mxGeometry x="-0.2042" relative="1" as="geometry">
            <mxPoint x="-5" y="-22" as="offset" />
          </mxGeometry>
        </mxCell>
        <mxCell id="eaVu01EKKMKqN_9fJNtu-76" value="" style="endArrow=classic;html=1;rounded=0;entryX=0.1;entryY=0.5;entryDx=0;entryDy=0;entryPerimeter=0;exitX=0;exitY=0.5;exitDx=0;exitDy=0;dashed=1;" edge="1" parent="1" source="eaVu01EKKMKqN_9fJNtu-45" target="eaVu01EKKMKqN_9fJNtu-72">
          <mxGeometry width="50" height="50" relative="1" as="geometry">
            <mxPoint x="847" y="760" as="sourcePoint" />
            <mxPoint x="710" y="490" as="targetPoint" />
          </mxGeometry>
        </mxCell>
        <mxCell id="eaVu01EKKMKqN_9fJNtu-81" value="16 MiB" style="edgeLabel;html=1;align=center;verticalAlign=middle;resizable=0;points=[];" vertex="1" connectable="0" parent="eaVu01EKKMKqN_9fJNtu-76">
          <mxGeometry x="-0.1243" y="1" relative="1" as="geometry">
            <mxPoint y="5" as="offset" />
          </mxGeometry>
        </mxCell>
        <mxCell id="eaVu01EKKMKqN_9fJNtu-77" value="" style="endArrow=classic;html=1;rounded=0;entryX=0.1;entryY=0.5;entryDx=0;entryDy=0;entryPerimeter=0;exitX=0;exitY=0.5;exitDx=0;exitDy=0;dashed=1;" edge="1" parent="1" source="eaVu01EKKMKqN_9fJNtu-46" target="eaVu01EKKMKqN_9fJNtu-73">
          <mxGeometry width="50" height="50" relative="1" as="geometry">
            <mxPoint x="767" y="606" as="sourcePoint" />
            <mxPoint x="630" y="480" as="targetPoint" />
          </mxGeometry>
        </mxCell>
        <mxCell id="eaVu01EKKMKqN_9fJNtu-80" value="16 MiB" style="edgeLabel;html=1;align=center;verticalAlign=middle;resizable=0;points=[];" vertex="1" connectable="0" parent="eaVu01EKKMKqN_9fJNtu-77">
          <mxGeometry x="-0.0379" y="1" relative="1" as="geometry">
            <mxPoint x="6" as="offset" />
          </mxGeometry>
        </mxCell>
        <mxCell id="eaVu01EKKMKqN_9fJNtu-78" value="" style="endArrow=classic;html=1;rounded=0;entryX=0.1;entryY=0.5;entryDx=0;entryDy=0;entryPerimeter=0;exitX=0;exitY=0.5;exitDx=0;exitDy=0;dashed=1;" edge="1" parent="1" source="eaVu01EKKMKqN_9fJNtu-48" target="eaVu01EKKMKqN_9fJNtu-74">
          <mxGeometry width="50" height="50" relative="1" as="geometry">
            <mxPoint x="757" y="590" as="sourcePoint" />
            <mxPoint x="620" y="609" as="targetPoint" />
          </mxGeometry>
        </mxCell>
        <mxCell id="eaVu01EKKMKqN_9fJNtu-79" value="16 MiB" style="edgeLabel;html=1;align=center;verticalAlign=middle;resizable=0;points=[];" vertex="1" connectable="0" parent="eaVu01EKKMKqN_9fJNtu-78">
          <mxGeometry x="-0.0273" y="2" relative="1" as="geometry">
            <mxPoint x="5" y="-8" as="offset" />
          </mxGeometry>
        </mxCell>
        <mxCell id="eaVu01EKKMKqN_9fJNtu-84" value="" style="group" vertex="1" connectable="0" parent="1">
          <mxGeometry x="960" y="380" width="260" height="280" as="geometry" />
        </mxCell>
        <mxCell id="eaVu01EKKMKqN_9fJNtu-34" value="" style="rounded=0;whiteSpace=wrap;html=1;" vertex="1" parent="eaVu01EKKMKqN_9fJNtu-84">
          <mxGeometry width="240" height="280" as="geometry" />
        </mxCell>
        <mxCell id="eaVu01EKKMKqN_9fJNtu-35" value="struct umem_cache" style="rounded=1;whiteSpace=wrap;html=1;fillColor=#006600;fontColor=#ffffff;strokeColor=#005700;" vertex="1" parent="eaVu01EKKMKqN_9fJNtu-84">
          <mxGeometry width="240" height="80" as="geometry" />
        </mxCell>
        <mxCell id="eaVu01EKKMKqN_9fJNtu-36" value="struct umem_page&amp;nbsp; &amp;nbsp; &amp;nbsp; &amp;nbsp; &amp;nbsp; &amp;nbsp;&amp;nbsp;" style="rounded=1;whiteSpace=wrap;html=1;fillColor=#cdeb8b;strokeColor=#FFFFFF;" vertex="1" parent="eaVu01EKKMKqN_9fJNtu-84">
          <mxGeometry y="80" width="240" height="40" as="geometry" />
        </mxCell>
        <mxCell id="eaVu01EKKMKqN_9fJNtu-40" value="struct umem_page&amp;nbsp; &amp;nbsp; &amp;nbsp; &amp;nbsp; &amp;nbsp; &amp;nbsp;&amp;nbsp;" style="rounded=1;whiteSpace=wrap;html=1;fillColor=#cdeb8b;strokeColor=#FFFFFF;" vertex="1" parent="eaVu01EKKMKqN_9fJNtu-84">
          <mxGeometry y="120" width="240" height="40" as="geometry" />
        </mxCell>
        <mxCell id="eaVu01EKKMKqN_9fJNtu-41" value="struct umem_page&amp;nbsp; &amp;nbsp; &amp;nbsp; &amp;nbsp; &amp;nbsp; &amp;nbsp;&amp;nbsp;" style="rounded=1;whiteSpace=wrap;html=1;fillColor=#cdeb8b;strokeColor=#FFFFFF;" vertex="1" parent="eaVu01EKKMKqN_9fJNtu-84">
          <mxGeometry y="160" width="240" height="40" as="geometry" />
        </mxCell>
        <mxCell id="eaVu01EKKMKqN_9fJNtu-42" value="......" style="rounded=1;whiteSpace=wrap;html=1;fillColor=#cdeb8b;strokeColor=#FFFFFF;" vertex="1" parent="eaVu01EKKMKqN_9fJNtu-84">
          <mxGeometry y="200" width="240" height="40" as="geometry" />
        </mxCell>
        <mxCell id="eaVu01EKKMKqN_9fJNtu-43" value="struct umem_page&amp;nbsp; &amp;nbsp; &amp;nbsp; &amp;nbsp; &amp;nbsp; &amp;nbsp;&amp;nbsp;" style="rounded=1;whiteSpace=wrap;html=1;fillColor=#cdeb8b;strokeColor=#FFFFFF;" vertex="1" parent="eaVu01EKKMKqN_9fJNtu-84">
          <mxGeometry y="240" width="240" height="40" as="geometry" />
        </mxCell>
        <mxCell id="eaVu01EKKMKqN_9fJNtu-122" value="// [0, 16M)" style="text;html=1;align=left;verticalAlign=middle;whiteSpace=wrap;rounded=0;" vertex="1" parent="eaVu01EKKMKqN_9fJNtu-84">
          <mxGeometry x="153" y="85" width="100" height="30" as="geometry" />
        </mxCell>
        <mxCell id="eaVu01EKKMKqN_9fJNtu-123" value="// [16M, 32M)" style="text;html=1;align=left;verticalAlign=middle;whiteSpace=wrap;rounded=0;" vertex="1" parent="eaVu01EKKMKqN_9fJNtu-84">
          <mxGeometry x="153" y="125" width="100" height="30" as="geometry" />
        </mxCell>
        <mxCell id="eaVu01EKKMKqN_9fJNtu-124" value="// [32M, 48M)" style="text;html=1;align=left;verticalAlign=middle;whiteSpace=wrap;rounded=0;" vertex="1" parent="eaVu01EKKMKqN_9fJNtu-84">
          <mxGeometry x="153" y="165" width="100" height="30" as="geometry" />
        </mxCell>
        <mxCell id="eaVu01EKKMKqN_9fJNtu-125" value="// [xM, x+16M)" style="text;html=1;align=left;verticalAlign=middle;whiteSpace=wrap;rounded=0;" vertex="1" parent="eaVu01EKKMKqN_9fJNtu-84">
          <mxGeometry x="153" y="245" width="100" height="30" as="geometry" />
        </mxCell>
        <mxCell id="eaVu01EKKMKqN_9fJNtu-87" value="" style="endArrow=none;dashed=1;html=1;rounded=0;entryX=0.5;entryY=0;entryDx=0;entryDy=0;" edge="1" parent="1" target="eaVu01EKKMKqN_9fJNtu-44">
          <mxGeometry width="50" height="50" relative="1" as="geometry">
            <mxPoint x="760" y="660" as="sourcePoint" />
            <mxPoint x="760" y="475" as="targetPoint" />
          </mxGeometry>
        </mxCell>
        <mxCell id="eaVu01EKKMKqN_9fJNtu-88" value="" style="endArrow=none;dashed=1;html=1;rounded=0;entryX=0;entryY=0.5;entryDx=0;entryDy=0;exitX=0.5;exitY=0;exitDx=0;exitDy=0;edgeStyle=orthogonalEdgeStyle;curved=1;" edge="1" parent="1" source="eaVu01EKKMKqN_9fJNtu-44" target="eaVu01EKKMKqN_9fJNtu-35">
          <mxGeometry width="50" height="50" relative="1" as="geometry">
            <mxPoint x="760" y="440" as="sourcePoint" />
            <mxPoint x="760" y="440" as="targetPoint" />
          </mxGeometry>
        </mxCell>
        <mxCell id="eaVu01EKKMKqN_9fJNtu-90" value="ca_pgs_lru" style="edgeLabel;html=1;align=center;verticalAlign=middle;resizable=0;points=[];" vertex="1" connectable="0" parent="eaVu01EKKMKqN_9fJNtu-88">
          <mxGeometry x="0.0932" y="-4" relative="1" as="geometry">
            <mxPoint as="offset" />
          </mxGeometry>
        </mxCell>
        <mxCell id="eaVu01EKKMKqN_9fJNtu-44" value="struct umem_page_info" style="rounded=1;whiteSpace=wrap;html=1;fillColor=#a0522d;strokeColor=#FFFFFF;fontColor=#ffffff;" vertex="1" parent="1">
          <mxGeometry x="640" y="460" width="240" height="40" as="geometry" />
        </mxCell>
        <mxCell id="eaVu01EKKMKqN_9fJNtu-45" value="struct umem_page_info" style="rounded=1;whiteSpace=wrap;html=1;fillColor=#a0522d;strokeColor=#FFFFFF;fontColor=#ffffff;" vertex="1" parent="1">
          <mxGeometry x="640" y="500" width="240" height="40" as="geometry" />
        </mxCell>
        <mxCell id="eaVu01EKKMKqN_9fJNtu-46" value="struct umem_page_info" style="rounded=1;whiteSpace=wrap;html=1;fillColor=#a0522d;strokeColor=#FFFFFF;fontColor=#ffffff;" vertex="1" parent="1">
          <mxGeometry x="640" y="540" width="240" height="40" as="geometry" />
        </mxCell>
        <mxCell id="eaVu01EKKMKqN_9fJNtu-47" value="......" style="rounded=1;whiteSpace=wrap;html=1;fillColor=#a0522d;strokeColor=#FFFFFF;fontColor=#ffffff;" vertex="1" parent="1">
          <mxGeometry x="640" y="580" width="240" height="40" as="geometry" />
        </mxCell>
        <mxCell id="eaVu01EKKMKqN_9fJNtu-48" value="struct umem_page_info" style="rounded=1;whiteSpace=wrap;html=1;fillColor=#a0522d;strokeColor=#FFFFFF;fontColor=#ffffff;" vertex="1" parent="1">
          <mxGeometry x="640" y="620" width="240" height="40" as="geometry" />
        </mxCell>
        <mxCell id="eaVu01EKKMKqN_9fJNtu-107" value="" style="endArrow=none;html=1;rounded=0;" edge="1" parent="1">
          <mxGeometry width="50" height="50" relative="1" as="geometry">
            <mxPoint x="499.09" y="1550" as="sourcePoint" />
            <mxPoint x="499.09" y="1030" as="targetPoint" />
          </mxGeometry>
        </mxCell>
        <mxCell id="eaVu01EKKMKqN_9fJNtu-108" value="" style="endArrow=none;html=1;rounded=0;" edge="1" parent="1">
          <mxGeometry width="50" height="50" relative="1" as="geometry">
            <mxPoint x="139.09" y="1550" as="sourcePoint" />
            <mxPoint x="139.09" y="1030" as="targetPoint" />
          </mxGeometry>
        </mxCell>
        <mxCell id="eaVu01EKKMKqN_9fJNtu-110" value="" style="endArrow=none;dashed=1;html=1;rounded=0;" edge="1" parent="1">
          <mxGeometry width="50" height="50" relative="1" as="geometry">
            <mxPoint x="69.09" y="1080" as="sourcePoint" />
            <mxPoint x="139.09" y="1080" as="targetPoint" />
          </mxGeometry>
        </mxCell>
        <mxCell id="eaVu01EKKMKqN_9fJNtu-112" value="" style="endArrow=none;dashed=1;html=1;rounded=0;" edge="1" parent="1">
          <mxGeometry width="50" height="50" relative="1" as="geometry">
            <mxPoint x="69.09" y="1480" as="sourcePoint" />
            <mxPoint x="139.09" y="1480" as="targetPoint" />
          </mxGeometry>
        </mxCell>
        <mxCell id="eaVu01EKKMKqN_9fJNtu-113" value="" style="shape=curlyBracket;whiteSpace=wrap;html=1;rounded=1;labelPosition=left;verticalLabelPosition=middle;align=right;verticalAlign=middle;strokeWidth=0.5;" vertex="1" parent="1">
          <mxGeometry x="108.09" y="1080" width="20" height="400" as="geometry" />
        </mxCell>
        <mxCell id="eaVu01EKKMKqN_9fJNtu-114" value="&lt;div&gt;一个Cache Page&lt;/div&gt;16MiB&lt;div&gt;&lt;br&gt;&lt;/div&gt;&lt;div&gt;每个chunk 4K&lt;/div&gt;&lt;div&gt;4096个chunk&lt;/div&gt;" style="text;html=1;align=center;verticalAlign=middle;whiteSpace=wrap;rounded=0;" vertex="1" parent="1">
          <mxGeometry x="15" y="1212.5" width="95" height="135" as="geometry" />
        </mxCell>
        <mxCell id="eaVu01EKKMKqN_9fJNtu-117" value="cache chunk (4K)" style="rounded=1;whiteSpace=wrap;html=1;fillColor=#f8cecc;strokeColor=#FFFFFF;" vertex="1" parent="1">
          <mxGeometry x="138.18" y="1160" width="360.91" height="80" as="geometry" />
        </mxCell>
        <mxCell id="eaVu01EKKMKqN_9fJNtu-118" value="cache chunk (4K)" style="rounded=1;whiteSpace=wrap;html=1;fillColor=#6F0000;strokeColor=#FFFFFF;fontColor=#ffffff;" vertex="1" parent="1">
          <mxGeometry x="140" y="1240" width="360.91" height="80" as="geometry" />
        </mxCell>
        <mxCell id="eaVu01EKKMKqN_9fJNtu-119" value="......" style="rounded=1;whiteSpace=wrap;html=1;fillColor=#f8cecc;strokeColor=#FFFFFF;" vertex="1" parent="1">
          <mxGeometry x="140" y="1320" width="360.91" height="80" as="geometry" />
        </mxCell>
        <mxCell id="eaVu01EKKMKqN_9fJNtu-120" value="cache chunk (4K)" style="rounded=1;whiteSpace=wrap;html=1;fillColor=#f8cecc;strokeColor=#FFFFFF;" vertex="1" parent="1">
          <mxGeometry x="138.18" y="1400" width="360.91" height="80" as="geometry" />
        </mxCell>
        <mxCell id="eaVu01EKKMKqN_9fJNtu-1" value="" style="rounded=0;whiteSpace=wrap;html=1;strokeWidth=1;fillColor=none;" vertex="1" parent="1">
          <mxGeometry x="140" y="120" width="360" height="820" as="geometry" />
        </mxCell>
        <mxCell id="eaVu01EKKMKqN_9fJNtu-116" value="cache chunk (4K)" style="rounded=1;whiteSpace=wrap;html=1;fillColor=#6F0000;strokeColor=#FFFFFF;fontColor=#ffffff;" vertex="1" parent="1">
          <mxGeometry x="139.09" y="1080" width="360.91" height="80" as="geometry" />
        </mxCell>
        <mxCell id="eaVu01EKKMKqN_9fJNtu-102" value="" style="rounded=0;whiteSpace=wrap;html=1;strokeWidth=1;fillColor=none;strokeColor=#36393d;" vertex="1" parent="1">
          <mxGeometry x="139.09" y="1080" width="360.91" height="400" as="geometry" />
        </mxCell>
        <mxCell id="eaVu01EKKMKqN_9fJNtu-127" value="" style="group" vertex="1" connectable="0" parent="1">
          <mxGeometry x="640" y="1270" width="240" height="140" as="geometry" />
        </mxCell>
        <mxCell id="eaVu01EKKMKqN_9fJNtu-101" value="" style="rounded=1;whiteSpace=wrap;html=1;fillColor=#a0522d;strokeColor=#FFFFFF;fontColor=#ffffff;" vertex="1" parent="eaVu01EKKMKqN_9fJNtu-127">
          <mxGeometry width="240" height="140" as="geometry" />
        </mxCell>
        <mxCell id="eaVu01EKKMKqN_9fJNtu-106" value="&lt;font style=&quot;color: rgb(255, 255, 255);&quot;&gt;uint8_t *pi_addr;&lt;/font&gt;" style="text;html=1;align=left;verticalAlign=middle;whiteSpace=wrap;rounded=0;" vertex="1" parent="eaVu01EKKMKqN_9fJNtu-127">
          <mxGeometry x="25" y="40" width="190" height="30" as="geometry" />
        </mxCell>
        <mxCell id="eaVu01EKKMKqN_9fJNtu-121" value="&lt;div&gt;&lt;font style=&quot;color: rgb(255, 255, 255);&quot;&gt;// 64*64=4096 = 4096 bit (chunk)&lt;/font&gt;&lt;/div&gt;&lt;div&gt;&lt;font style=&quot;color: rgb(255, 255, 255);&quot;&gt;//&lt;/font&gt;&lt;font&gt;&lt;font style=&quot;color: rgb(255, 255, 255);&quot;&gt; &lt;/font&gt;&lt;font style=&quot;color: rgb(255, 255, 255);&quot;&gt;&lt;b style=&quot;&quot;&gt;dirty chunks are set;&lt;/b&gt;&lt;/font&gt;&lt;/font&gt;&lt;/div&gt;&lt;font style=&quot;color: rgb(255, 255, 255);&quot;&gt;uint64_t pi_bmap[64];&amp;nbsp;&lt;/font&gt;" style="text;html=1;align=left;verticalAlign=middle;whiteSpace=wrap;rounded=0;" vertex="1" parent="eaVu01EKKMKqN_9fJNtu-127">
          <mxGeometry x="25" y="75" width="190" height="45" as="geometry" />
        </mxCell>
        <mxCell id="eaVu01EKKMKqN_9fJNtu-126" value="&lt;font style=&quot;font-size: 14px; color: rgb(255, 255, 255);&quot;&gt;struct umem_page_info&lt;/font&gt;" style="text;html=1;align=center;verticalAlign=middle;whiteSpace=wrap;rounded=0;" vertex="1" parent="eaVu01EKKMKqN_9fJNtu-127">
          <mxGeometry x="35" y="10" width="170" height="30" as="geometry" />
        </mxCell>
        <mxCell id="eaVu01EKKMKqN_9fJNtu-128" value="" style="group" vertex="1" connectable="0" parent="1">
          <mxGeometry x="960" y="1120" width="260" height="280" as="geometry" />
        </mxCell>
        <mxCell id="eaVu01EKKMKqN_9fJNtu-129" value="" style="rounded=0;whiteSpace=wrap;html=1;" vertex="1" parent="eaVu01EKKMKqN_9fJNtu-128">
          <mxGeometry width="240" height="280" as="geometry" />
        </mxCell>
        <mxCell id="eaVu01EKKMKqN_9fJNtu-130" value="struct umem_cache" style="rounded=1;whiteSpace=wrap;html=1;fillColor=#006600;fontColor=#ffffff;strokeColor=#005700;" vertex="1" parent="eaVu01EKKMKqN_9fJNtu-128">
          <mxGeometry width="240" height="80" as="geometry" />
        </mxCell>
        <mxCell id="eaVu01EKKMKqN_9fJNtu-131" value="struct umem_page&amp;nbsp; &amp;nbsp; &amp;nbsp; &amp;nbsp; &amp;nbsp; &amp;nbsp;&amp;nbsp;" style="rounded=1;whiteSpace=wrap;html=1;fillColor=#cdeb8b;strokeColor=#FFFFFF;" vertex="1" parent="eaVu01EKKMKqN_9fJNtu-128">
          <mxGeometry y="80" width="240" height="40" as="geometry" />
        </mxCell>
        <mxCell id="eaVu01EKKMKqN_9fJNtu-132" value="struct umem_page&amp;nbsp; &amp;nbsp; &amp;nbsp; &amp;nbsp; &amp;nbsp; &amp;nbsp;&amp;nbsp;" style="rounded=1;whiteSpace=wrap;html=1;fillColor=#cdeb8b;strokeColor=#FFFFFF;" vertex="1" parent="eaVu01EKKMKqN_9fJNtu-128">
          <mxGeometry y="120" width="240" height="40" as="geometry" />
        </mxCell>
        <mxCell id="eaVu01EKKMKqN_9fJNtu-133" value="struct umem_page&amp;nbsp; &amp;nbsp; &amp;nbsp; &amp;nbsp; &amp;nbsp; &amp;nbsp;&amp;nbsp;" style="rounded=1;whiteSpace=wrap;html=1;fillColor=#cdeb8b;strokeColor=#FFFFFF;" vertex="1" parent="eaVu01EKKMKqN_9fJNtu-128">
          <mxGeometry y="160" width="240" height="40" as="geometry" />
        </mxCell>
        <mxCell id="eaVu01EKKMKqN_9fJNtu-134" value="......" style="rounded=1;whiteSpace=wrap;html=1;fillColor=#cdeb8b;strokeColor=#FFFFFF;" vertex="1" parent="eaVu01EKKMKqN_9fJNtu-128">
          <mxGeometry y="200" width="240" height="40" as="geometry" />
        </mxCell>
        <mxCell id="eaVu01EKKMKqN_9fJNtu-135" value="struct umem_page&amp;nbsp; &amp;nbsp; &amp;nbsp; &amp;nbsp; &amp;nbsp; &amp;nbsp;&amp;nbsp;" style="rounded=1;whiteSpace=wrap;html=1;fillColor=#cdeb8b;strokeColor=#FFFFFF;" vertex="1" parent="eaVu01EKKMKqN_9fJNtu-128">
          <mxGeometry y="240" width="240" height="40" as="geometry" />
        </mxCell>
        <mxCell id="eaVu01EKKMKqN_9fJNtu-136" value="// [0, 16M)" style="text;html=1;align=left;verticalAlign=middle;whiteSpace=wrap;rounded=0;" vertex="1" parent="eaVu01EKKMKqN_9fJNtu-128">
          <mxGeometry x="153" y="85" width="100" height="30" as="geometry" />
        </mxCell>
        <mxCell id="eaVu01EKKMKqN_9fJNtu-137" value="// [16M, 32M)" style="text;html=1;align=left;verticalAlign=middle;whiteSpace=wrap;rounded=0;" vertex="1" parent="eaVu01EKKMKqN_9fJNtu-128">
          <mxGeometry x="153" y="125" width="100" height="30" as="geometry" />
        </mxCell>
        <mxCell id="eaVu01EKKMKqN_9fJNtu-138" value="// [32M, 48M)" style="text;html=1;align=left;verticalAlign=middle;whiteSpace=wrap;rounded=0;" vertex="1" parent="eaVu01EKKMKqN_9fJNtu-128">
          <mxGeometry x="153" y="165" width="100" height="30" as="geometry" />
        </mxCell>
        <mxCell id="eaVu01EKKMKqN_9fJNtu-139" value="// [xM, x+16M)" style="text;html=1;align=left;verticalAlign=middle;whiteSpace=wrap;rounded=0;" vertex="1" parent="eaVu01EKKMKqN_9fJNtu-128">
          <mxGeometry x="153" y="245" width="100" height="30" as="geometry" />
        </mxCell>
        <mxCell id="eaVu01EKKMKqN_9fJNtu-142" value="struct umem_page_info" style="rounded=1;whiteSpace=wrap;html=1;fillColor=#a0522d;strokeColor=#FFFFFF;fontColor=#ffffff;" vertex="1" parent="1">
          <mxGeometry x="640" y="1030" width="240" height="40" as="geometry" />
        </mxCell>
        <mxCell id="eaVu01EKKMKqN_9fJNtu-143" value="......" style="rounded=1;whiteSpace=wrap;html=1;fillColor=#a0522d;strokeColor=#FFFFFF;fontColor=#ffffff;" vertex="1" parent="1">
          <mxGeometry x="640" y="1070" width="240" height="40" as="geometry" />
        </mxCell>
        <mxCell id="eaVu01EKKMKqN_9fJNtu-144" value="struct umem_page_info" style="rounded=1;whiteSpace=wrap;html=1;fillColor=#a0522d;strokeColor=#FFFFFF;fontColor=#ffffff;" vertex="1" parent="1">
          <mxGeometry x="640" y="1110" width="240" height="40" as="geometry" />
        </mxCell>
        <mxCell id="eaVu01EKKMKqN_9fJNtu-145" value="" style="endArrow=none;dashed=1;html=1;rounded=0;entryX=0;entryY=0.5;entryDx=0;entryDy=0;exitX=0.5;exitY=0;exitDx=0;exitDy=0;edgeStyle=orthogonalEdgeStyle;curved=1;" edge="1" parent="1" source="eaVu01EKKMKqN_9fJNtu-142" target="eaVu01EKKMKqN_9fJNtu-130">
          <mxGeometry width="50" height="50" relative="1" as="geometry">
            <mxPoint x="920" y="460" as="sourcePoint" />
            <mxPoint x="1120" y="420" as="targetPoint" />
            <Array as="points">
              <mxPoint x="760" y="990" />
              <mxPoint x="920" y="990" />
              <mxPoint x="920" y="1160" />
            </Array>
          </mxGeometry>
        </mxCell>
        <mxCell id="eaVu01EKKMKqN_9fJNtu-146" value="ca_pgs_lru" style="edgeLabel;html=1;align=center;verticalAlign=middle;resizable=0;points=[];" vertex="1" connectable="0" parent="eaVu01EKKMKqN_9fJNtu-145">
          <mxGeometry x="0.0932" y="-4" relative="1" as="geometry">
            <mxPoint as="offset" />
          </mxGeometry>
        </mxCell>
        <mxCell id="eaVu01EKKMKqN_9fJNtu-147" value="" style="endArrow=none;dashed=1;html=1;rounded=0;entryX=0;entryY=0.5;entryDx=0;entryDy=0;exitX=0.5;exitY=0;exitDx=0;exitDy=0;edgeStyle=orthogonalEdgeStyle;curved=1;" edge="1" parent="1" source="eaVu01EKKMKqN_9fJNtu-101" target="eaVu01EKKMKqN_9fJNtu-130">
          <mxGeometry width="50" height="50" relative="1" as="geometry">
            <mxPoint x="920" y="1130" as="sourcePoint" />
            <mxPoint x="1120" y="1260" as="targetPoint" />
          </mxGeometry>
        </mxCell>
        <mxCell id="eaVu01EKKMKqN_9fJNtu-148" value="&lt;b&gt;ca_pgs_dirty&lt;/b&gt;" style="edgeLabel;html=1;align=center;verticalAlign=middle;resizable=0;points=[];" vertex="1" connectable="0" parent="eaVu01EKKMKqN_9fJNtu-147">
          <mxGeometry x="0.0932" y="-4" relative="1" as="geometry">
            <mxPoint x="-29" y="41" as="offset" />
          </mxGeometry>
        </mxCell>
        <mxCell id="eaVu01EKKMKqN_9fJNtu-149" value="" style="endArrow=none;dashed=1;html=1;rounded=0;entryX=0.5;entryY=0;entryDx=0;entryDy=0;" edge="1" parent="1" target="eaVu01EKKMKqN_9fJNtu-44">
          <mxGeometry width="50" height="50" relative="1" as="geometry">
            <mxPoint x="760" y="670" as="sourcePoint" />
            <mxPoint x="590" y="870" as="targetPoint" />
          </mxGeometry>
        </mxCell>
        <mxCell id="eaVu01EKKMKqN_9fJNtu-150" value="" style="endArrow=none;dashed=1;html=1;rounded=0;entryX=0.5;entryY=0;entryDx=0;entryDy=0;" edge="1" parent="1" target="eaVu01EKKMKqN_9fJNtu-101">
          <mxGeometry width="50" height="50" relative="1" as="geometry">
            <mxPoint x="760" y="1420" as="sourcePoint" />
            <mxPoint x="760" y="1220" as="targetPoint" />
          </mxGeometry>
        </mxCell>
        <mxCell id="eaVu01EKKMKqN_9fJNtu-151" value="" style="endArrow=none;dashed=1;html=1;rounded=0;entryX=0.5;entryY=0;entryDx=0;entryDy=0;" edge="1" parent="1" target="eaVu01EKKMKqN_9fJNtu-142">
          <mxGeometry width="50" height="50" relative="1" as="geometry">
            <mxPoint x="760" y="1160" as="sourcePoint" />
            <mxPoint x="770" y="1360" as="targetPoint" />
          </mxGeometry>
        </mxCell>
        <mxCell id="eaVu01EKKMKqN_9fJNtu-104" value="" style="endArrow=classic;html=1;rounded=0;entryX=1;entryY=0;entryDx=0;entryDy=0;exitX=0;exitY=0.5;exitDx=0;exitDy=0;dashed=1;" edge="1" parent="1" source="eaVu01EKKMKqN_9fJNtu-106" target="eaVu01EKKMKqN_9fJNtu-102">
          <mxGeometry width="50" height="50" relative="1" as="geometry">
            <mxPoint x="657" y="800" as="sourcePoint" />
            <mxPoint x="543" y="1305" as="targetPoint" />
          </mxGeometry>
        </mxCell>
        <mxCell id="eaVu01EKKMKqN_9fJNtu-162" value="" style="rounded=1;whiteSpace=wrap;html=1;" vertex="1" parent="1">
          <mxGeometry x="610" y="1470" width="300" height="170" as="geometry" />
        </mxCell>
        <mxCell id="eaVu01EKKMKqN_9fJNtu-163" value="&lt;div&gt;&lt;span style=&quot;background-color: transparent; color: light-dark(rgb(0, 0, 0), rgb(255, 255, 255));&quot;&gt;transaction&lt;/span&gt;&lt;/div&gt;&lt;div&gt;&lt;span style=&quot;background-color: transparent; color: light-dark(rgb(0, 0, 0), rgb(255, 255, 255));&quot;&gt;(&lt;/span&gt;&lt;span style=&quot;background-color: transparent;&quot;&gt;struct dav_tx&lt;/span&gt;&lt;span style=&quot;background-color: transparent; color: light-dark(rgb(0, 0, 0), rgb(255, 255, 255));&quot;&gt;)&lt;/span&gt;&lt;/div&gt;" style="text;html=1;align=center;verticalAlign=middle;whiteSpace=wrap;rounded=0;" vertex="1" parent="1">
          <mxGeometry x="692.5" y="1491" width="135" height="30" as="geometry" />
        </mxCell>
        <mxCell id="eaVu01EKKMKqN_9fJNtu-164" value="struct wal_action：copy addr:size &amp;lt;-- ptr" style="rounded=0;whiteSpace=wrap;html=1;align=left;" vertex="1" parent="1">
          <mxGeometry x="635" y="1530" width="250" height="20" as="geometry" />
        </mxCell>
        <mxCell id="eaVu01EKKMKqN_9fJNtu-165" value="struct wal_action：copy addr:size &amp;lt;-- payload" style="rounded=0;whiteSpace=wrap;html=1;align=left;" vertex="1" parent="1">
          <mxGeometry x="635" y="1550" width="250" height="20" as="geometry" />
        </mxCell>
        <mxCell id="eaVu01EKKMKqN_9fJNtu-166" value="struct wal_action：assign addr:size &amp;lt;-- val" style="rounded=0;whiteSpace=wrap;html=1;align=left;" vertex="1" parent="1">
          <mxGeometry x="635" y="1570" width="250" height="20" as="geometry" />
        </mxCell>
        <mxCell id="eaVu01EKKMKqN_9fJNtu-167" value="struct wal_action：......" style="rounded=0;whiteSpace=wrap;html=1;align=left;" vertex="1" parent="1">
          <mxGeometry x="635" y="1590" width="250" height="20" as="geometry" />
        </mxCell>
      </root>
    </mxGraphModel>
  </diagram>
</mxfile>
